<svg width="24" height="24" viewBox="0 0 24 24" fill="none" xmlns="http://www.w3.org/2000/svg">
<g id="eva:arrow-ios-back-fill">
<path id="Vector" d="M10.17 19C10.3194 19.0005 10.467 18.9675 10.602 18.9035C10.737 18.8394 10.8559 18.746 10.95 18.63L15.78 12.63C15.9271 12.451 16.0075 12.2266 16.0075 11.995C16.0075 11.7633 15.9271 11.5389 15.78 11.36L10.78 5.35997C10.6103 5.15575 10.3663 5.02733 10.1019 5.00295C9.83749 4.97857 9.57421 5.06023 9.37 5.22997C9.16578 5.39971 9.03736 5.64362 9.01298 5.90805C8.9886 6.17247 9.07026 6.43575 9.24 6.63997L13.71 12L9.39 17.36C9.26771 17.5068 9.19004 17.6855 9.16616 17.875C9.14228 18.0646 9.17319 18.257 9.25525 18.4295C9.33731 18.6021 9.46707 18.7475 9.62918 18.8486C9.79129 18.9497 9.97896 19.0022 10.17 19Z" fill="black"/>
</g>
</svg>
