<svg width="52" height="52" viewBox="0 0 52 52" fill="none" xmlns="http://www.w3.org/2000/svg">
<g id="emojione-monotone:cricket-game">
<path id="Vector" d="M39.2267 34.6028L40.2439 35.6216L39.4745 36.3927L38.2167 35.1357C37.9058 35.3327 37.6103 35.5529 37.3328 35.7947L47.7847 46.2459C48.0293 45.9631 48.2495 45.6698 48.4437 45.3619L47.1851 44.1049L47.9578 43.3339L48.9767 44.3528C50.1491 41.6423 49.634 38.3768 47.4183 36.1611C45.2026 33.9454 41.9372 33.4311 39.2267 34.6028ZM40.2439 37.1637L41.0158 36.3927L42.5571 37.9356L41.7877 38.7075L40.2439 37.1637ZM42.5579 39.4778L43.3306 38.7083L44.8711 40.2496L44.1017 41.0199L42.5579 39.4778ZM46.4157 43.3339L44.8719 41.7918L45.6438 41.0207L47.1851 42.5628L46.4157 43.3339ZM35.9027 37.4497L37.1613 38.7083L36.3894 39.4778L35.3706 38.4589C34.1981 41.1702 34.7124 44.4364 36.9281 46.6513C39.1438 48.8662 42.4093 49.3805 45.1206 48.2081L44.1025 47.19L44.8719 46.4181L46.1305 47.6759C46.4376 47.4825 46.7317 47.2615 47.0145 47.0169L36.5609 36.5649C36.3171 36.8477 36.0977 37.1418 35.9027 37.4497ZM44.1017 45.6479L43.3306 46.4181L41.7885 44.8768L42.5579 44.1058L44.1017 45.6479ZM41.7885 43.3339L41.0166 44.1049L39.4753 42.5628L40.2448 41.7918L41.7885 43.3339ZM39.4745 41.0199L38.7018 41.7909L37.1613 40.2496L37.9307 39.4778L39.4745 41.0199ZM40.9662 20.5936C40.9662 20.1825 40.8029 19.7876 40.5104 19.4967L38.8318 17.8165C38.8237 17.7474 38.8099 17.68 38.8091 17.6093C38.8034 17.3224 38.8559 17.0373 38.9633 16.7712C39.0706 16.505 39.2307 16.2634 39.4339 16.0607L50.375 5.11794L50.2864 4.79212C50.0909 4.05386 49.7038 3.38033 49.1644 2.83969C48.624 2.3008 47.9516 1.91331 47.2144 1.716L46.8869 1.625L35.9426 12.5702C35.4778 13.0349 34.8099 13.221 34.1648 13.1495L32.5065 11.492C32.3626 11.3479 32.1917 11.2335 32.0035 11.1555C31.8154 11.0775 31.6137 11.0373 31.41 11.0373C31.2064 11.0373 31.0047 11.0775 30.8165 11.1555C30.6284 11.2335 30.4575 11.3479 30.3136 11.492L2.30019 39.5054C1.68756 40.118 1.17975 41.2929 2.23762 43.4119C2.8145 44.5656 3.78381 45.8526 4.96762 47.0364C5.75087 47.8189 8.48412 50.375 10.7729 50.375C11.6423 50.375 12.1907 50.0094 12.4979 49.7023L40.5104 21.6897C40.8029 21.3988 40.9662 21.0048 40.9662 20.5936ZM36.7656 13.3924L46.319 3.83906C46.7163 4.01619 47.0917 4.25831 47.4191 4.58494C47.7458 4.91156 47.9862 5.28694 48.1634 5.68425L38.6108 15.2376C38.1991 15.6493 37.9048 16.1634 37.7585 16.7269L37.7317 16.7164L35.2853 14.2691L35.2747 14.2448C35.8388 14.0986 36.3535 13.8044 36.7656 13.3924ZM3.6725 40.3268L31.4096 12.5889L35.1195 16.2971L11.1069 40.3106C10.5536 40.8639 9.33481 41.4253 8.55237 41.3684C7.41894 41.2839 3.6725 40.3268 3.6725 40.3268ZM11.6772 48.3307C11.6772 48.3307 10.7201 44.5851 10.6364 43.4484C10.5787 42.6684 11.141 41.4481 11.6935 40.8956C17.6954 34.8904 35.7061 16.8821 35.7061 16.8821L39.4136 20.592L11.6772 48.3307Z" fill="white"/>
</g>
</svg>
