<svg width="29" height="20" viewBox="0 0 29 20" fill="none" xmlns="http://www.w3.org/2000/svg">
<path id="Vector" d="M27.55 0H1.45C1.06544 0 0.696623 0.15051 0.424695 0.418419C0.152767 0.686328 0 1.04969 0 1.42857V7.14286H1.29485C2.73905 7.14286 4.07885 8.11571 4.31085 9.52C4.38153 9.93005 4.36053 10.3504 4.24932 10.7516C4.13811 11.1528 3.93937 11.5253 3.66697 11.8431C3.39457 12.1608 3.05507 12.4162 2.67216 12.5913C2.28925 12.7665 1.87216 12.8572 1.45 12.8571H0V18.5714C0 18.9503 0.152767 19.3137 0.424695 19.5816C0.696623 19.8495 1.06544 20 1.45 20H27.55C27.9346 20 28.3034 19.8495 28.5753 19.5816C28.8472 19.3137 29 18.9503 29 18.5714V12.8571H27.55C27.1278 12.8572 26.7107 12.7665 26.3278 12.5913C25.9449 12.4162 25.6054 12.1608 25.333 11.8431C25.0606 11.5253 24.8619 11.1528 24.7507 10.7516C24.6395 10.3504 24.6185 9.93005 24.6892 9.52C24.9212 8.11571 26.261 7.14286 27.7052 7.14286H29V1.42857C29 1.04969 28.8472 0.686328 28.5753 0.418419C28.3034 0.15051 27.9346 0 27.55 0ZM13.05 17.1429H10.15V14.2857H13.05V17.1429ZM13.05 11.4286H10.15V8.57143H13.05V11.4286ZM13.05 5.71429H10.15V2.85714H13.05V5.71429Z" fill="white"/>
</svg>
