<svg width="27" height="26" viewBox="0 0 27 26" fill="none" xmlns="http://www.w3.org/2000/svg">
<g id="fa:share-square-o" clip-path="url(#clip0_25_289)">
<path id="Vector" d="M22.8462 16.7409V21.125C22.8462 22.4679 22.3891 23.6161 21.4751 24.5697C20.561 25.5232 19.4603 26 18.1731 26H4.67308C3.38582 26 2.28516 25.5232 1.37109 24.5697C0.457031 23.6161 0 22.4679 0 21.125V7.04167C0 5.69878 0.457031 4.55056 1.37109 3.59701C2.28516 2.64345 3.38582 2.16667 4.67308 2.16667H8.8107C8.95132 2.16667 9.07302 2.22027 9.17578 2.32747C9.27855 2.43468 9.32993 2.56163 9.32993 2.70833C9.32993 3.01302 9.1893 3.19358 8.90805 3.25C8.07512 3.5434 7.35577 3.88194 6.75 4.26562C6.64183 4.31076 6.55529 4.33333 6.49038 4.33333H4.67308C3.95913 4.33333 3.34796 4.59852 2.83954 5.12891C2.33113 5.65929 2.07692 6.29688 2.07692 7.04167V21.125C2.07692 21.8698 2.33113 22.5074 2.83954 23.0378C3.34796 23.5681 3.95913 23.8333 4.67308 23.8333H18.1731C18.887 23.8333 19.4982 23.5681 20.0066 23.0378C20.515 22.5074 20.7692 21.8698 20.7692 21.125V17.5026C20.7692 17.2882 20.8666 17.1246 21.0613 17.0117C21.3642 16.865 21.6562 16.6562 21.9375 16.3854C22.1106 16.2049 22.2999 16.1597 22.5054 16.25C22.7326 16.3516 22.8462 16.5152 22.8462 16.7409ZM26.6917 8.34505L20.4609 14.8451C20.2662 15.0595 20.0228 15.1667 19.7308 15.1667C19.601 15.1667 19.4657 15.1385 19.3251 15.082C18.9032 14.8902 18.6923 14.5573 18.6923 14.0833V10.8333H16.0962C12.6022 10.8333 10.2332 11.5725 8.98918 13.0508C7.70192 14.5968 7.30168 17.2656 7.78846 21.0573C7.82091 21.3168 7.71274 21.5087 7.46394 21.6328C7.3774 21.6554 7.3125 21.6667 7.26923 21.6667C7.09615 21.6667 6.95553 21.5933 6.84736 21.4466C6.73918 21.2886 6.6256 21.1137 6.50661 20.9219C6.38762 20.73 6.17398 20.3435 5.86569 19.7624C5.55739 19.1812 5.28966 18.6198 5.0625 18.0781C4.83534 17.5365 4.6271 16.8932 4.4378 16.1484C4.2485 15.4036 4.15385 14.7153 4.15385 14.0833C4.15385 13.5304 4.17278 13.0169 4.21064 12.543C4.2485 12.069 4.32422 11.5612 4.4378 11.0195C4.55138 10.4779 4.70282 9.98134 4.89213 9.52995C5.08143 9.07856 5.33564 8.61871 5.65475 8.15039C5.97386 7.68208 6.34435 7.26454 6.76623 6.89779C7.1881 6.53103 7.69922 6.18403 8.29958 5.85677C8.89994 5.52951 9.57332 5.25586 10.3197 5.03581C11.0661 4.81576 11.9288 4.64366 12.9078 4.51953C13.8867 4.3954 14.9495 4.33333 16.0962 4.33333H18.6923V1.08333C18.6923 0.609375 18.9032 0.276476 19.3251 0.0846354C19.4657 0.0282118 19.601 0 19.7308 0C20.012 0 20.2554 0.107205 20.4609 0.321615L26.6917 6.82161C26.8972 7.03602 27 7.28993 27 7.58333C27 7.87674 26.8972 8.13064 26.6917 8.34505Z" fill="white"/>
</g>
<defs>
<clipPath id="clip0_25_289">
<rect width="27" height="26" fill="white"/>
</clipPath>
</defs>
</svg>
