<svg width="31" height="31" viewBox="0 0 31 31" fill="none" xmlns="http://www.w3.org/2000/svg">
<path d="M23.25 11.625H20.0208C19.3104 11.625 18.7292 12.2062 18.7292 12.9167V18.0833C18.7292 18.7937 19.3104 19.375 20.0208 19.375H23.25C23.9604 19.375 24.5417 18.7937 24.5417 18.0833V12.9167C24.5417 12.2062 23.9604 11.625 23.25 11.625ZM22.6042 17.4375H20.6667V13.5625H22.6042V17.4375ZM12.2708 19.375H6.45833V16.1458C6.45833 15.4354 7.03958 14.8542 7.75 14.8542H10.3333V13.5625H6.45833V11.625H10.9792C11.6896 11.625 12.2708 12.2062 12.2708 12.9167V14.8542C12.2708 15.5646 11.6896 16.1458 10.9792 16.1458H8.39583V17.4375H12.2708V19.375ZM16.4687 14.2083H14.5312V12.2708H16.4687V14.2083ZM16.4687 18.7292H14.5312V16.7917H16.4687V18.7292ZM28.4167 7.74999V23.25C28.4167 24.6708 27.2542 25.8333 25.8333 25.8333H5.16666C3.74583 25.8333 2.58333 24.6708 2.58333 23.25V7.74999C2.58333 6.32916 3.74583 5.16666 5.16666 5.16666H9.04166V2.58333H11.625V5.16666H19.375V2.58333H21.9583V5.16666H25.8333C27.2542 5.16666 28.4167 6.32916 28.4167 7.74999ZM25.8333 23.25V7.74999H16.4687V9.68749H14.5312V7.74999H5.16666V23.25H14.5312V21.3125H16.4687V23.25H25.8333Z" fill="white"/>
</svg>
