<svg width="44" height="42" viewBox="0 0 44 42" fill="none" xmlns="http://www.w3.org/2000/svg">
<g id="freepik--Trophy--inject-46">
<path id="Vector" d="M12.4402 21.0222C13.4274 21.0222 14.1579 20.9729 14.232 20.9679L14.0987 18.9935C14.0493 18.9935 9.48853 19.2946 7.14396 18.342C5.27817 17.567 3.22481 12.3349 2.30672 7.69515C1.72922 4.75825 2.04512 3.83523 2.30672 3.54401C2.35608 3.47984 2.49429 3.31202 3.02243 3.31202H4.8438C5.36701 4.89646 6.21106 6.49077 7.4796 6.49077H11.1223V4.51639H7.59806C7.09101 3.76491 6.72164 2.92924 6.50721 2.04842L6.30485 1.32283H2.99282C2.57296 1.29954 2.15332 1.37236 1.76584 1.53573C1.37837 1.6991 1.03327 1.94873 0.756834 2.2656C-0.0970851 3.30708 -0.230352 5.0939 0.366898 8.06534C0.838188 10.4581 1.54244 12.799 2.46961 15.0546C3.66411 17.8731 4.99188 19.5957 6.41837 20.1683C8.16076 20.8889 10.7225 21.0222 12.4402 21.0222Z" fill="#FFC727"/>
<path id="Vector_2" opacity="0.2" d="M8.21503 4.50158H11.1322V6.49076H8.6642L8.21503 4.50158Z" fill="black"/>
<path id="Vector_3" opacity="0.2" d="M14.232 20.9728C14.153 20.9728 13.4472 21.0271 12.4402 21.0271C12.2724 21.0271 12.0996 21.0271 11.917 21.0271L11.4728 19.0528C12.919 19.0972 14.074 19.0231 14.0987 19.0182L14.232 20.9728Z" fill="black"/>
<path id="Vector_4" d="M31.5226 21.0222C30.5354 21.0222 29.8049 20.9728 29.7309 20.9679L29.8642 18.9935C29.9135 18.9935 34.4743 19.2946 36.8189 18.342C38.6847 17.5868 40.743 12.3399 41.6561 7.70007C42.2336 4.76318 41.9177 3.84016 41.6561 3.54894C41.6068 3.48477 41.4686 3.31695 40.9404 3.31695H39.1191C38.5959 4.90139 37.7518 6.4957 36.4833 6.4957H32.8405V4.52132H36.3648C36.8719 3.76984 37.2412 2.93417 37.4557 2.05335L37.658 1.32776H40.97C41.3895 1.30387 41.8089 1.37591 42.1964 1.53841C42.5838 1.70092 42.9291 1.94961 43.206 2.26559C44.06 3.30708 44.1932 5.09389 43.596 8.06533C43.1247 10.4581 42.4204 12.799 41.4933 15.0546C40.2988 17.8731 38.971 19.5957 37.5445 20.1683C35.8021 20.8889 33.2403 21.0222 31.5226 21.0222Z" fill="#FFC727"/>
<path id="Vector_5" opacity="0.2" d="M35.7478 4.50158H32.8306V6.49076H35.2986L35.7478 4.50158Z" fill="black"/>
<path id="Vector_6" opacity="0.2" d="M29.7309 20.9728C29.8099 20.9728 30.5157 21.0271 31.5226 21.0271C31.6905 21.0271 31.8632 21.0271 32.0459 21.0271L32.4901 19.0528C31.0439 19.0972 29.8888 19.0231 29.8642 19.0182L29.7309 20.9728Z" fill="black"/>
<path id="Vector_7" d="M11.6011 40.8795V42H32.3617V40.8795H30.5848L29.257 38.9792L23.2154 36.5754V24.7834H20.7475V36.5754L14.7058 38.9792L13.3781 40.8795H11.6011Z" fill="#FFC727"/>
<path id="Vector_8" d="M20.0614 26.358H23.8966V25.119H20.0614V26.358Z" fill="#FFC727"/>
<path id="Vector_9" opacity="0.2" d="M20.0663 25.9039L23.8966 25.736V25.119H20.0663V25.9039Z" fill="black"/>
<path id="Vector_10" d="M9.28613 -3.8147e-06C9.28613 -3.8147e-06 10.2733 16.0616 12.7907 20.5039C15.308 24.9463 20.7227 25.3214 21.9814 25.3214C23.2401 25.3214 28.6449 24.9414 31.1721 20.5039C33.6993 16.0665 34.6767 -3.8147e-06 34.6767 -3.8147e-06H9.28613Z" fill="#FFC727"/>
<path id="Vector_11" opacity="0.3" d="M20.0514 25.1388C17.8697 24.7735 14.5972 23.658 12.7857 20.5039C10.2536 16.0616 9.28613 -3.8147e-06 9.28613 -3.8147e-06H11.6702C12.0009 3.37125 12.6574 16.259 14.4738 20.0054C16.0583 23.2829 19.7948 25.045 20.0514 25.1388Z" fill="white"/>
<path id="Vector_12" opacity="0.2" d="M30.5848 40.8845H13.3781L13.8519 40.1984L29.6864 39.6011L30.5848 40.8845Z" fill="black"/>
<path id="Vector_13" opacity="0.1" d="M21.9814 5.07415L23.3437 7.83828L26.3991 8.28252L24.1878 10.4346L24.711 13.4702L21.9814 12.0388L19.2518 13.4702L19.775 10.4346L17.5637 8.28252L20.6191 7.83828L21.9814 5.07415Z" fill="black"/>
</g>
</svg>
