<svg width="49" height="34" viewBox="0 0 49 34" fill="none" xmlns="http://www.w3.org/2000/svg">
<path id="Vector" d="M46.55 0H2.45C1.80022 0 1.17705 0.255867 0.717588 0.711313C0.258124 1.16676 0 1.78447 0 2.42857V12.1429H2.18785C4.62805 12.1429 6.89185 13.7967 7.28385 16.184C7.40327 16.8811 7.36779 17.5956 7.17988 18.2777C6.99198 18.9598 6.65618 19.593 6.19591 20.1332C5.73565 20.6734 5.16201 21.1075 4.51503 21.4053C3.86805 21.703 3.16331 21.8572 2.45 21.8571H0V31.5714C0 32.2155 0.258124 32.8332 0.717588 33.2887C1.17705 33.7441 1.80022 34 2.45 34H46.55C47.1998 34 47.8229 33.7441 48.2824 33.2887C48.7419 32.8332 49 32.2155 49 31.5714V21.8571H46.55C45.8367 21.8572 45.132 21.703 44.485 21.4053C43.838 21.1075 43.2644 20.6734 42.8041 20.1332C42.3438 19.593 42.008 18.9598 41.8201 18.2777C41.6322 17.5956 41.5967 16.8811 41.7162 16.184C42.1082 13.7967 44.372 12.1429 46.8122 12.1429H49V2.42857C49 1.78447 48.7419 1.16676 48.2824 0.711313C47.8229 0.255867 47.1998 0 46.55 0ZM22.05 29.1429H17.15V24.2857H22.05V29.1429ZM22.05 19.4286H17.15V14.5714H22.05V19.4286ZM22.05 9.71429H17.15V4.85714H22.05V9.71429Z" fill="#0F519F"/>
</svg>
