<svg width="21" height="26" viewBox="0 0 21 26" fill="none" xmlns="http://www.w3.org/2000/svg">
<path d="M11.4426 10.1514C11.6214 9.61513 12.3786 9.61513 12.5574 10.1514L13.6055 13.299C13.8362 13.9909 14.2249 14.6196 14.7408 15.1352C15.2567 15.6508 15.8856 16.0392 16.5776 16.2695L19.7236 17.3176C20.2599 17.4964 20.2599 18.2536 19.7236 18.4324L16.576 19.4805C15.8841 19.7112 15.2554 20.0999 14.7398 20.6158C14.2242 21.1317 13.8358 21.7606 13.6055 22.4526L12.5574 25.5986C12.5188 25.7161 12.4442 25.8183 12.3441 25.8908C12.244 25.9633 12.1236 26.0023 12 26.0023C11.8764 26.0023 11.756 25.9633 11.6559 25.8908C11.5558 25.8183 11.4812 25.7161 11.4426 25.5986L10.3945 22.451C10.164 21.7593 9.7755 21.1307 9.25991 20.6151C8.74432 20.0995 8.11575 19.7111 7.424 19.4805L4.27637 18.4324C4.15895 18.3938 4.05669 18.3192 3.9842 18.2191C3.91171 18.119 3.87267 17.9986 3.87267 17.875C3.87267 17.7514 3.91171 17.631 3.9842 17.5309C4.05669 17.4308 4.15895 17.3562 4.27637 17.3176L7.424 16.2695C8.11575 16.039 8.74432 15.6505 9.25991 15.1349C9.7755 14.6193 10.164 13.9908 10.3945 13.299L11.4426 10.1514ZM5.16525 1.86551C5.18855 1.79514 5.23344 1.7339 5.29353 1.69049C5.35362 1.64709 5.42587 1.62373 5.5 1.62373C5.57413 1.62373 5.64637 1.64709 5.70646 1.69049C5.76656 1.7339 5.81144 1.79514 5.83475 1.86551L6.46362 3.75376C6.74475 4.59551 7.4045 5.25526 8.24625 5.53638L10.1345 6.16526C10.2049 6.18856 10.2661 6.23345 10.3095 6.29354C10.3529 6.35364 10.3763 6.42588 10.3763 6.50001C10.3763 6.57414 10.3529 6.64638 10.3095 6.70648C10.2661 6.76657 10.2049 6.81146 10.1345 6.83476L8.24625 7.46363C7.8311 7.60195 7.45387 7.83505 7.14446 8.14447C6.83504 8.45388 6.60194 8.83111 6.46362 9.24626L5.83475 11.1345C5.81144 11.2049 5.76656 11.2661 5.70646 11.3095C5.64637 11.3529 5.57413 11.3763 5.5 11.3763C5.42587 11.3763 5.35362 11.3529 5.29353 11.3095C5.23344 11.2661 5.18855 11.2049 5.16525 11.1345L4.53637 9.24626C4.39806 8.83111 4.16496 8.45388 3.85554 8.14447C3.54612 7.83505 3.16889 7.60195 2.75375 7.46363L0.865497 6.83476C0.795126 6.81146 0.733887 6.76657 0.690484 6.70648C0.64708 6.64638 0.623718 6.57414 0.623718 6.50001C0.623718 6.42588 0.64708 6.35364 0.690484 6.29354C0.733887 6.23345 0.795126 6.18856 0.865497 6.16526L2.75375 5.53638C3.16889 5.39807 3.54612 5.16497 3.85554 4.85555C4.16496 4.54613 4.39806 4.1689 4.53637 3.75376L5.16525 1.86551ZM16.6524 0.160883C16.6684 0.114613 16.6985 0.0744916 16.7384 0.0460958C16.7783 0.0177 16.826 0.00244141 16.875 0.00244141C16.924 0.00244141 16.9717 0.0177 17.0116 0.0460958C17.0515 0.0744916 17.0816 0.114613 17.0976 0.160883L17.5169 1.41863C17.7037 1.98088 18.1441 2.42126 18.7064 2.60813L19.9641 3.02738C20.0104 3.04342 20.0505 3.07348 20.0789 3.11338C20.1073 3.15328 20.1226 3.20104 20.1226 3.25001C20.1226 3.29898 20.1073 3.34673 20.0789 3.38663C20.0505 3.42653 20.0104 3.45659 19.9641 3.47263L18.7064 3.89188C18.4293 3.98406 18.1775 4.13956 17.971 4.34604C17.7645 4.55253 17.609 4.8043 17.5169 5.08138L17.0976 6.33913C17.0816 6.3854 17.0515 6.42553 17.0116 6.45392C16.9717 6.48232 16.924 6.49758 16.875 6.49758C16.826 6.49758 16.7783 6.48232 16.7384 6.45392C16.6985 6.42553 16.6684 6.3854 16.6524 6.33913L16.2331 5.08138C16.1409 4.8043 15.9854 4.55253 15.779 4.34604C15.5725 4.13956 15.3207 3.98406 15.0436 3.89188L13.7875 3.47263C13.7412 3.45659 13.7011 3.42653 13.6727 3.38663C13.6443 3.34673 13.6291 3.29898 13.6291 3.25001C13.6291 3.20104 13.6443 3.15328 13.6727 3.11338C13.7011 3.07348 13.7412 3.04342 13.7875 3.02738L15.0452 2.60813C15.6075 2.42126 16.0479 1.98088 16.2347 1.41863L16.6524 0.162508V0.160883Z" fill="#FFBD12"/>
</svg>
