<svg xmlns="http://www.w3.org/2000/svg" fill="none" viewBox="0 0 217 135.49">
<path d="M195.154 7.25948L201.905 7.09803L205.329 7.02883C206.47 7.02883 207.622 7.02883 208.769 7H209V7.25948V13.7117V14H208.743L201.946 13.9596C199.679 13.9596 197.411 13.8962 195.139 13.8674H195V13.7175C195 12.6219 195.046 11.5321 195.067 10.4539L195.154 7.25948ZM195.154 7.25948L195.226 10.5173C195.252 11.5898 195.288 12.6507 195.298 13.7117L195.154 13.5502C197.427 13.5502 199.694 13.458 201.961 13.458L208.769 13.4234L208.512 13.7117L208.542 7.25948L208.769 7.51318C207.648 7.51318 206.532 7.51318 205.406 7.51318L202.023 7.43822L195.154 7.25948Z" fill="#EBEBEB"/>
<path d="M203.139 0.197694L209.884 0.0593075L213.306 0C214.452 0 215.597 0 216.743 0H216.974V0.222406L217 5.75288V6H216.723L209.941 5.94069C207.675 5.94069 205.41 5.88633 203.139 5.86162H203V5.72817C203 4.78913 203.046 3.85503 203.067 2.93081L203.139 0.197694ZM203.139 0.197694L203.216 2.99012C203.216 3.90939 203.272 4.81878 203.283 5.72817L203.139 5.58979C205.41 5.56507 207.675 5.51071 209.941 5.51071L216.723 5.48105L216.471 5.72817L216.497 0.197694L216.723 0.405272C215.603 0.405272 214.488 0.405272 213.363 0.38056L209.982 0.321253L203.139 0.197694Z" fill="#EBEBEB"/>
<path d="M188.128 0.198512L194.874 0.0595528L198.296 0C199.436 0 200.587 0 201.733 0H201.959V0.223325L202 5.75186V6H201.743L194.941 5.97022C192.675 5.97022 190.404 5.91563 188.139 5.89082H188V5.75682C188 4.81389 188.041 3.87593 188.067 2.94789L188.128 0.198512ZM188.128 0.198512L188.2 3.00248C188.2 3.92556 188.257 4.83871 188.267 5.75186L188.128 5.6129C190.394 5.58809 192.665 5.5335 194.931 5.5335L201.733 5.50372L201.476 5.75186L201.507 0.198512L201.733 0.416874C200.613 0.416874 199.493 0.416874 198.373 0.39206L194.992 0.332505L188.128 0.198512Z" fill="#EBEBEB"/>
<path d="M7.12853 0.197694L13.874 0.0593075L17.2982 0C18.4447 0 19.5964 0 20.7429 0H20.9692V0.222406L21 5.75288V6H20.7429L13.9512 5.94069C11.6787 5.94069 9.41131 5.88633 7.14396 5.86162H7V5.72817C7 4.78913 7.04627 3.85503 7.06684 2.93081L7.12853 0.197694ZM7.12853 0.197694L7.20051 2.99012C7.20051 3.90939 7.25707 4.81878 7.26735 5.72817L7.12853 5.58979C9.39589 5.56507 11.6632 5.51071 13.9357 5.51071L20.7429 5.48105L20.4859 5.72817L20.5116 0.197694L20.7429 0.415157C19.6067 0.405272 18.5013 0.405272 17.3753 0.405272L13.9923 0.345964L7.12853 0.197694Z" fill="#EBEBEB"/>
<path d="M171.856 84.741L165.118 84.9021L161.698 84.9655C160.552 84.9942 159.402 84.9655 158.257 85H158.031V84.741L158 78.2878V78H158.257L165.057 78.0345C167.321 78.0345 169.591 78.1036 171.856 78.1324H172V78.2878C172 79.3816 171.959 80.4696 171.933 81.5461L171.856 84.741ZM171.856 84.741L171.784 81.4885C171.759 80.412 171.728 79.3528 171.718 78.2993L171.856 78.4548C169.591 78.4893 167.321 78.5469 165.057 78.5526L158.257 78.5872L158.514 78.2993L158.488 84.741L158.257 84.4877C159.376 84.4877 160.496 84.4877 161.621 84.4877L165 84.551L171.856 84.741Z" fill="#EBEBEB"/>
<path d="M164.84 91.7776L157.616 91.916L153.951 91.9703C152.729 91.9703 151.497 91.9703 150.27 92H150.028V91.7776L150 86.2471V86H150.275L157.561 86.0297C159.987 86.0297 162.419 86.089 164.846 86.1137H165V86.2471C165 87.1862 164.956 88.1203 164.928 89.0445L164.84 91.7776ZM164.84 91.7776L164.763 88.9852C164.736 88.061 164.703 87.1516 164.692 86.2471L164.84 86.3806C162.414 86.4102 159.982 86.4596 157.555 86.4646L150.27 86.4942L150.545 86.2471L150.512 91.7776L150.27 91.5601C151.469 91.5601 152.669 91.5601 153.868 91.5848L157.489 91.6392L164.84 91.7776Z" fill="#EBEBEB"/>
<path d="M77 0H0V103H77V0Z" fill="#EBEBEB"/>
<path d="M36 4H4V50H36V4Z" fill="white"/>
<path d="M72 4H40V50H72V4Z" fill="white"/>
<path d="M36 53H4V99H36V53Z" fill="white"/>
<path d="M72 53H40V99H72V53Z" fill="white"/>
<path d="M21 0H0V116H21V0Z" fill="#DBDBDB"/>
<path d="M16.5041 7L16.748 19.1255L16.8293 31.247L17 55.498L16.8374 79.749L16.748 91.8745L16.5041 104L16.252 91.8745L16.1707 79.749L16 55.498L16.1707 31.247L16.2602 19.1255L16.5041 7Z" fill="#EBEBEB"/>
<path d="M7.50406 11L7.74797 25.248L7.88618 39.5013L8 68.0027L7.88618 96.4987L7.74797 110.752L7.50406 125L7.26016 110.752L7.11382 96.4987L7 68.0027L7.12195 39.5013L7.26016 25.248L7.50406 11Z" fill="#EBEBEB"/>
<path d="M11.9919 13L12.4797 25.501L12.6585 38.002L13 63L12.6585 87.998L12.4797 100.499L11.9919 113L11.5041 100.499L11.3252 87.998L11 63L11.3252 38.002L11.5041 25.501L11.9919 13Z" fill="#EBEBEB"/>
<path d="M56 120H77L77 0H56L56 120Z" fill="#DBDBDB"/>
<path d="M158 34L215 34V30L158 30V34Z" fill="#EBEBEB"/>
<path d="M210 34H207V45H210V34Z" fill="#EBEBEB"/>
<path d="M210 34H207V37H210V34Z" fill="#DBDBDB"/>
<path d="M166 34H162V45H166V34Z" fill="#EBEBEB"/>
<path d="M166 34H162V37H166V34Z" fill="#DBDBDB"/>
<path d="M201 30V9H195V30H201Z" fill="#C7C7C7"/>
<path d="M201 10V7H195V10H201Z" fill="#DBDBDB"/>
<path d="M201 14V13H195V14H201Z" fill="#DBDBDB"/>
<path d="M201 27V25H194V27H201Z" fill="#DBDBDB"/>
<path d="M195 30V5H191V30H195Z" fill="#DBDBDB"/>
<path d="M194 17V7H192V17H194Z" fill="#EBEBEB"/>
<path d="M167.092 30.1433L184.864 12.5743L182.214 9.89298L164.441 27.462L167.092 30.1433Z" fill="#C7C7C7"/>
<path d="M170.729 25.4814L177.564 18.7241L175.974 17.1153L169.138 23.8726L170.729 25.4814Z" fill="#DBDBDB"/>
<path d="M191 30V11H185V30H191Z" fill="#A6A6A6"/>
<path d="M191 28V26H185V28H191Z" fill="#C7C7C7"/>
<path d="M205 30V12H201V30H205Z" fill="#A6A6A6"/>
<path d="M205 28V27H201V28H205Z" fill="#C7C7C7"/>
<path d="M205 17V16H201V17H205Z" fill="#C7C7C7"/>
<path d="M205 19V18H201V19H205Z" fill="#C7C7C7"/>
<path d="M30.5771 90.0142C27.1838 83.0417 21.2468 79.4625 14.5557 81.4379C7.86464 83.4134 6.85567 92.749 11.8262 95.1015C16.7967 97.454 21.815 90.5824 24.4543 89.1645C27.0935 87.7467 30.5771 90.0142 30.5771 90.0142Z" fill="#FFC727"/>
<path d="M33.8643 108.579C33.8643 107.735 33.8111 106.896 33.7846 106.057C33.7209 104.379 33.6678 102.701 33.604 101.023C33.4872 97.9532 33.158 94.9369 31.8888 92.1064C30.7683 89.5327 28.8899 87.3617 26.5041 85.8827C25.6211 85.3513 24.6709 84.9406 23.6789 84.6613C22.7759 83.7514 21.6287 83.1225 20.3759 82.8505C18.8266 82.5355 17.2339 82.496 15.6709 82.7336C15.6125 82.7336 15.6125 82.8292 15.6709 82.8186C17.1625 82.629 18.6769 82.7373 20.1263 83.1372C20.745 83.3074 21.3447 83.5405 21.9159 83.8329C22.2835 84.0297 22.6382 84.2497 22.978 84.4914C21.6276 84.2134 20.2333 84.2279 18.889 84.5338C18.4038 84.6487 17.9295 84.805 17.4711 85.0012C17.1053 84.9196 16.7303 84.8874 16.3559 84.9056C15.8666 84.9212 15.3804 84.9907 14.9062 85.1127C13.9376 85.3865 13.0104 85.7902 12.1501 86.3128C12.1367 86.3149 12.1247 86.3223 12.1168 86.3332C12.1088 86.3442 12.1055 86.3579 12.1076 86.3712C12.1097 86.3846 12.1171 86.3966 12.128 86.4046C12.139 86.4125 12.1527 86.4158 12.166 86.4137C13.0091 85.95 13.9139 85.6085 14.8531 85.3994C15.3076 85.2977 15.7692 85.2302 16.2338 85.1976C16.4903 85.1843 16.7473 85.1843 17.0038 85.1976C15.1025 86.0817 13.5764 87.6115 12.6971 89.515C12.6971 89.5681 12.7502 89.6106 12.7767 89.5575C13.3037 88.4536 14.0731 87.4829 15.0275 86.7179C15.982 85.9529 17.0968 85.4133 18.2889 85.1392C18.4376 85.1021 18.5863 85.0808 18.735 85.049C18.6994 85.2723 18.6763 85.4975 18.666 85.7234C18.6182 86.0632 18.5597 86.4031 18.496 86.7376C18.3596 87.4273 18.1822 88.1082 17.965 88.7768C17.7406 89.4552 17.4691 90.1171 17.1525 90.7576C16.8537 91.438 16.4739 92.0799 16.0214 92.6693C16.0154 92.6739 16.0106 92.6798 16.0074 92.6865C16.0041 92.6932 16.0025 92.7006 16.0026 92.7081C16.0027 92.7156 16.0046 92.7229 16.0081 92.7295C16.0115 92.7362 16.0165 92.7419 16.0226 92.7462C16.0287 92.7506 16.0357 92.7534 16.0431 92.7546C16.0505 92.7557 16.0581 92.7551 16.0652 92.7528C16.0723 92.7505 16.0787 92.7465 16.0841 92.7413C16.0894 92.736 16.0934 92.7295 16.0957 92.7225C16.494 92.0905 16.9666 91.5117 17.333 90.8532C17.6841 90.2298 17.986 89.58 18.2358 88.9096C18.492 88.2295 18.6926 87.5298 18.8359 86.8173C18.9102 86.4456 18.9686 86.0632 19.0111 85.6862C19.0543 85.457 19.0686 85.2233 19.0536 84.9905C19.8396 84.8738 20.6373 84.8577 21.4273 84.9428C21.13 86.6049 20.8113 88.3414 19.882 89.7858C19.8764 89.7957 19.8749 89.8074 19.8779 89.8183C19.8809 89.8293 19.8881 89.8386 19.898 89.8442C19.9078 89.8499 19.9195 89.8513 19.9305 89.8484C19.9414 89.8454 19.9507 89.8381 19.9564 89.8283C20.3854 89.071 20.7616 88.285 21.0822 87.4758C21.3891 86.6803 21.5822 85.8454 21.6557 84.9958C23.0372 85.1817 24.3708 85.6286 25.5854 86.3128C27.8707 87.6429 29.6942 89.6406 30.8108 92.0374C31.9912 94.6103 32.65 97.3917 32.7491 100.221C32.9721 103.784 33.0199 107.374 33.3757 110.926C33.3757 111.16 33.7687 111.234 33.8111 110.974C33.9065 110.18 33.9243 109.377 33.8643 108.579Z" fill="#263238"/>
<path d="M26.0208 85.3517C25.7971 85.0812 25.5381 84.8419 25.2508 84.6401C24.9747 84.4118 24.6879 84.1887 24.3905 83.9869C23.8015 83.5842 23.1502 83.2811 22.4629 83.0895C22.4045 83.0895 22.3832 83.1638 22.4629 83.1798C23.1551 83.3546 23.8028 83.673 24.364 84.1144C24.6454 84.3215 24.895 84.5445 25.1871 84.7729C25.4214 85.0209 25.6813 85.2434 25.9624 85.4367C25.973 85.4579 26.058 85.3995 26.0208 85.3517Z" fill="#263238"/>
<path d="M15.193 87.8741C14.6308 88.5269 14.1111 89.2152 13.637 89.9345C13.1721 90.6661 12.7841 91.4437 12.4794 92.2552C12.4794 92.2552 12.5112 92.2924 12.5218 92.2552C13.2972 90.7358 14.2127 89.2922 15.2567 87.9432C15.2939 87.8901 15.2301 87.8316 15.193 87.8741Z" fill="#263238"/>
<path d="M22.4947 87.1838C22.4215 87.6202 22.2912 88.0451 22.1071 88.4476C21.922 88.8354 21.7072 89.2082 21.4645 89.5628C21.4645 89.5628 21.4645 89.6106 21.5017 89.5894C22.0834 88.9168 22.4529 88.0872 22.5638 87.205C22.585 87.1519 22.5 87.1253 22.4947 87.1838Z" fill="#263238"/>
<path d="M33.4076 90.1842C33.4076 90.1842 38.2134 84.1516 47.4854 86.2917C56.3006 88.3255 60.363 104.485 51.4575 106.418C42.552 108.351 44.1239 93.397 40.8793 90.8586C38.479 88.9947 35.0538 89.3982 33.4076 90.1842Z" fill="#FFC727"/>
<path d="M54.6491 95.1121C54.0476 94.5824 53.4107 94.0945 52.7426 93.6517C52.1123 93.221 51.4263 92.878 50.7035 92.6321C50.343 92.0827 49.9399 91.5625 49.498 91.0762C48.6802 90.1967 47.735 89.4449 46.6941 88.8458H46.9703C47.462 88.8193 47.9548 88.8193 48.4466 88.8458C49.434 88.9086 50.402 89.1497 51.3035 89.5574C51.3566 89.5574 51.3938 89.499 51.3407 89.4777C50.4246 89.0809 49.466 88.7904 48.4837 88.6122C48.0068 88.5289 47.5234 88.488 47.0393 88.49C46.7773 88.49 46.5171 88.506 46.2587 88.5378H46.11C45.266 88.1085 44.3749 87.7788 43.4548 87.5554C43.5383 87.5274 43.6235 87.5044 43.7097 87.4864C44.1634 87.384 44.6226 87.3078 45.0851 87.258C46.0088 87.1526 46.9423 87.1669 47.8624 87.3005C47.9155 87.3005 47.9314 87.2208 47.8624 87.2155C46.9323 87.1024 45.9948 87.0634 45.0585 87.0987C44.2717 87.1233 43.4891 87.2247 42.722 87.4014C42.1644 87.2972 41.6 87.2333 41.0333 87.2102C37.7992 87.0722 34.2785 88.2723 32.2871 90.9275C30.2957 93.5827 29.908 97.1353 29.5522 100.343C29.0109 104.814 28.8936 109.327 29.2017 113.821C29.2017 114.086 29.5947 114.038 29.6 113.783C29.7222 109.976 29.8549 106.163 30.2213 102.366C30.3913 100.608 30.5771 98.8453 30.8692 97.1035C31.0799 95.6022 31.5112 94.1402 32.149 92.7649C32.8372 91.3604 33.9255 90.1909 35.2768 89.4034C36.6352 88.625 38.1499 88.1588 39.711 88.0386C41.109 87.9218 42.5167 88.053 43.869 88.4263C43.8262 88.699 43.8262 88.9767 43.869 89.2494C43.8962 89.5943 43.9639 89.9347 44.0708 90.2637C44.1735 90.5736 44.3032 90.8739 44.4585 91.1611C44.6284 91.4798 44.8461 91.7612 45.0373 92.0692C45.0691 92.117 45.1435 92.0692 45.1116 92.0161C44.7303 91.4726 44.4828 90.8467 44.3894 90.1893C44.331 89.8771 44.2938 89.5613 44.2779 89.2441C44.2779 89.0051 44.2779 88.7662 44.2779 88.5272C45.748 88.9752 47.1207 89.6958 48.3244 90.6514C48.5528 90.8319 48.7705 91.0231 48.9829 91.2196C48.6772 91.5036 48.4127 91.8289 48.197 92.186C47.8769 92.6503 47.5996 93.1427 47.3685 93.657C46.9404 94.6883 46.6528 95.7725 46.5136 96.8804C46.5136 96.9388 46.5932 96.9548 46.5985 96.8804C46.7704 95.8064 47.1299 94.7711 47.6606 93.8216C47.9031 93.3517 48.1782 92.8992 48.4837 92.4675C48.6377 92.2445 48.8023 92.0214 48.967 91.809C49.0572 91.6922 49.1581 91.5753 49.2431 91.4532C50.3435 92.5234 51.2428 93.7825 51.8983 95.1705C51.4674 95.6343 51.1094 96.1606 50.8362 96.7317C50.4699 97.3401 50.1469 97.9736 49.8697 98.6275C49.4245 99.8641 49.0556 101.127 48.7652 102.409C48.7652 102.467 48.8395 102.483 48.8501 102.409C49.1319 101.119 49.5743 99.8704 50.1671 98.6913C50.4433 98.1142 50.7353 97.5407 51.0433 96.9707C51.3658 96.4579 51.6567 95.9259 51.9142 95.3776C52.5353 96.7301 52.8956 98.1876 52.9763 99.6737C52.9763 99.7321 53.0719 99.7215 53.0666 99.6737C52.8962 97.343 52.1834 95.0844 50.9849 93.0782C51.5531 93.3225 52.1213 93.5561 52.6683 93.8482C53.3635 94.2196 54.0108 94.6743 54.596 95.2023C54.6119 95.2183 54.6491 95.1492 54.6491 95.1121Z" fill="#263238"/>
<path d="M47.8252 95.4414C47.5491 96.3548 47.1986 97.2469 46.9437 98.1709C46.691 99.0577 46.5536 99.9733 46.5348 100.895C46.5348 100.922 46.5773 100.922 46.5826 100.895C46.8325 99.0443 47.2775 97.2251 47.9102 95.4679C47.9119 95.4624 47.9126 95.4565 47.9121 95.4507C47.9115 95.4449 47.9099 95.4392 47.9071 95.434C47.9044 95.4288 47.9007 95.4242 47.8962 95.4205C47.8918 95.4168 47.8866 95.4139 47.881 95.4122C47.8754 95.4104 47.8696 95.4098 47.8637 95.4103C47.8579 95.4109 47.8522 95.4125 47.8471 95.4152C47.8419 95.4179 47.8373 95.4216 47.8335 95.4261C47.8298 95.4306 47.827 95.4358 47.8252 95.4414Z" fill="#263238"/>
<path d="M53.6985 93.1845C53.3347 92.8339 52.9214 92.5387 52.4718 92.3083C52.0135 92.0909 51.5373 91.9133 51.0486 91.7772C50.9955 91.7772 50.9796 91.8516 51.0486 91.8675C51.529 91.9913 51.99 92.1807 52.4187 92.4304C52.857 92.6571 53.2777 92.9162 53.6773 93.2057C53.6823 93.2042 53.6868 93.2015 53.6906 93.1978C53.6943 93.1941 53.697 93.1895 53.6985 93.1845Z" fill="#263238"/>
<path d="M37.9532 82.123C37.9532 82.123 38.8401 71.2792 46.9065 67.785C53.6401 64.8483 57.4954 72.4156 52.748 77.0463C48.882 80.7688 42.706 79.0802 37.9532 82.123Z" fill="#FFC727"/>
<path d="M51.2398 69.8613C50.012 70.3554 48.815 70.9229 47.6553 71.5607C46.6904 72.1184 45.761 72.7356 44.8727 73.4087C45.0054 73.1325 45.1222 72.8458 45.255 72.5803C45.4674 72.1608 45.6905 71.7519 45.9401 71.3536C46.4456 70.5307 47.0522 69.7742 47.7456 69.102C47.7827 69.0648 47.7456 69.0011 47.6819 69.0436C46.9998 69.7165 46.3745 70.4447 45.8126 71.2208C45.5337 71.6153 45.2767 72.0249 45.0426 72.4475C44.8109 72.838 44.6323 73.2577 44.5116 73.6954L44.4213 73.7592C43.0138 74.8826 41.7239 76.1459 40.5713 77.5295C40.5713 77.4233 40.619 77.3171 40.6456 77.2162C40.7943 76.6852 40.9589 76.1541 41.1342 75.6231C41.4785 74.5022 41.9676 73.4311 42.5892 72.4369C42.6211 72.3891 42.5414 72.3466 42.5149 72.3944C41.8807 73.3822 41.3164 74.4132 40.8262 75.4797C40.6006 75.996 40.4142 76.5286 40.2686 77.0728C40.1521 77.4283 40.0633 77.7923 40.003 78.1615C39.6526 78.6075 39.3074 79.0536 38.9835 79.5209C35.5211 84.4436 33.7846 90.4072 33.3651 96.3708C33.2448 98.1488 33.2146 99.9319 33.2748 101.713C33.291 103.51 33.4491 105.304 33.7474 107.076C33.7551 107.099 33.7705 107.118 33.791 107.131C33.8114 107.143 33.8356 107.148 33.8592 107.144C33.8827 107.14 33.9042 107.128 33.9197 107.11C33.9352 107.092 33.9438 107.069 33.9439 107.045C33.9067 105.478 33.7421 103.917 33.7102 102.35C33.6784 100.784 33.7102 99.2065 33.8642 97.6399C34.1169 94.5093 34.7063 91.4149 35.622 88.4105C36.5591 85.3341 37.9402 82.4109 39.7216 79.7333C40.0615 79.6696 40.4013 79.574 40.7306 79.4891C41.0598 79.4041 41.5377 79.282 41.9413 79.1704C42.7147 78.9685 43.4669 78.6929 44.1876 78.3473C44.1975 78.341 44.2044 78.331 44.2069 78.3196C44.2094 78.3081 44.2072 78.2961 44.2009 78.2863C44.1946 78.2764 44.1846 78.2695 44.1731 78.267C44.1617 78.2645 44.1497 78.2667 44.1398 78.273C43.4289 78.6586 42.6592 78.9242 41.8617 79.0589C41.2297 79.1811 40.5766 79.266 39.9446 79.4094C40.5268 78.5565 41.1525 77.734 41.8192 76.9454C43.3551 77.0852 44.9036 76.9703 46.4021 76.6055C47.2011 76.412 47.9869 76.1672 48.7545 75.8727C49.5617 75.5594 50.3477 75.1611 51.123 74.8106C51.1814 74.8106 51.123 74.6991 51.0858 74.731C49.6419 75.5204 48.065 76.037 46.4339 76.255C44.9955 76.4851 43.5414 76.6041 42.0847 76.6108C42.6582 75.9577 43.2477 75.3151 43.8796 74.715C46.0038 72.6971 48.5156 70.8438 51.3141 69.8773C51.3195 69.9516 51.2929 69.8401 51.2398 69.8613Z" fill="#263238"/>
<path d="M44.6815 69.8933C44.3175 70.3531 43.9857 70.8375 43.6885 71.343C43.3875 71.8731 43.1488 72.4362 42.9769 73.0211C42.9769 73.0211 42.9769 73.0529 43.014 73.0211C43.2796 72.49 43.5079 71.959 43.7787 71.428C44.0459 70.9053 44.37 70.4138 44.7452 69.9623C44.7824 69.9145 44.7134 69.8508 44.6815 69.8933Z" fill="#263238"/>
<path d="M31.687 80.1687C31.6339 80.6414 30.4656 76.2338 23.6471 72.32C17.4764 68.7674 10.0685 59.5273 16.1382 53.6912C21.0397 48.9809 33.9386 59.2512 31.687 80.1687Z" fill="#FFC727"/>
<path d="M36.3814 105.436C36.2852 100.849 35.9306 96.271 35.3193 91.7242C34.7801 87.5456 33.8138 83.4333 32.4358 79.4519C31.9313 78.0234 31.3737 76.6108 30.7205 75.2036C30.7596 74.664 30.7507 74.122 30.694 73.5839C30.6621 72.8883 30.5984 72.1979 30.5346 71.5023C30.4709 70.8066 30.4019 70.1215 30.3169 69.4312C30.2319 68.7408 30.0886 68.0505 30.062 67.3602C30.0645 67.353 30.0653 67.3453 30.0642 67.3377C30.0631 67.3302 30.0603 67.323 30.0558 67.3168C30.0514 67.3105 30.0456 67.3055 30.0388 67.302C30.032 67.2985 30.0245 67.2967 30.0169 67.2967C30.0093 67.2967 30.0017 67.2985 29.995 67.302C29.9882 67.3055 29.9823 67.3105 29.9779 67.3168C29.9735 67.323 29.9706 67.3302 29.9696 67.3377C29.9685 67.3453 29.9692 67.353 29.9717 67.3602C30.1116 68.0835 30.1932 68.8169 30.216 69.5533C30.2691 70.2224 30.3063 70.8916 30.3275 71.5607C30.3275 72.2351 30.3275 72.9042 30.3275 73.5733C30.3275 73.8176 30.3275 74.0725 30.3275 74.3327C29.6903 72.9785 28.9999 71.6456 28.2565 70.3446C28.7185 67.5195 28.1184 64.5616 27.5396 61.8002C27.5396 61.7418 27.444 61.7683 27.4599 61.8002C27.7413 63.244 27.8906 64.7104 27.906 66.1812C27.906 67.3389 27.906 68.5019 27.8741 69.6596C27.7095 69.3834 27.5502 69.1285 27.3803 68.8311C26.4988 67.3867 25.5553 65.9706 24.5498 64.5828C24.6279 63.9123 24.6046 63.2338 24.4808 62.5702C24.3718 61.8242 24.2067 61.0875 23.9869 60.3664C23.7692 59.6442 23.5196 58.9379 23.2329 58.2422C22.9461 57.5466 22.5425 56.8509 22.2611 56.1181C22.2611 56.0597 22.1442 56.1181 22.1814 56.1553C22.5411 56.8303 22.826 57.5426 23.0311 58.2794C23.2485 58.9767 23.4258 59.6859 23.5621 60.4036C23.7108 61.1205 23.8276 61.8427 23.9285 62.5649C23.9923 63.0481 24.0347 63.542 24.1197 64.0306C22.6584 62.0679 21.0614 60.21 19.3404 58.4706C19.2979 58.4334 19.2395 58.4706 19.2766 58.5343C21.8773 61.455 24.1992 64.6125 26.212 67.9655L26.4297 68.3479C26.0527 68.1089 25.6225 67.9231 25.2721 67.7266C24.6083 67.3602 23.9445 66.9937 23.2807 66.6379L21.3477 65.5759C21.0184 65.39 20.6945 65.1988 20.3546 65.0448C19.9527 64.8644 19.5671 64.6494 19.2023 64.4023C19.1492 64.3651 19.0961 64.4448 19.1492 64.4713C19.8077 64.8324 20.3865 65.3688 21.0184 65.7724C21.6504 66.1759 22.3036 66.5742 22.9674 66.9406C24.1781 67.6204 25.4951 68.1036 26.6846 68.8046C27.513 70.2561 28.2795 71.7394 28.984 73.2547C28.2547 72.7874 27.5166 72.3448 26.7696 71.9271C26.2863 71.6563 25.7978 71.396 25.3092 71.1305C24.8214 70.9063 24.3601 70.6285 23.9338 70.3021C23.8914 70.2649 23.8329 70.3287 23.8754 70.3658C24.6686 71.107 25.5518 71.7457 26.5041 72.2669C27.3803 72.798 28.2671 73.2759 29.1593 73.722C29.8921 75.3186 30.5506 76.9454 31.1347 78.6022C34.0023 86.7271 35.0591 95.3512 35.5636 103.922C35.7123 106.476 35.7919 109.025 35.8238 111.585C35.8556 114.145 35.7176 116.688 35.7229 119.243C35.7229 119.317 35.8503 119.338 35.861 119.243C36.1636 116.98 36.2167 114.676 36.3176 112.392C36.4185 110.109 36.4292 107.756 36.3814 105.436Z" fill="#263238"/>
<path d="M23.9923 68.6453C22.7453 68.0984 21.5354 67.4705 20.3706 66.7654C19.1909 66.1012 18.0475 65.3744 16.9454 64.5881C16.9454 64.5881 16.9029 64.5881 16.9454 64.62C17.9933 65.4658 19.0988 66.2376 20.2538 66.93C21.4543 67.605 22.6958 68.2045 23.971 68.7249C24.0029 68.7462 24.0454 68.6665 23.9923 68.6453Z" fill="#263238"/>
<path d="M25.973 59.4636C25.8721 59.0653 25.7447 58.6777 25.6119 58.29C25.6175 58.2833 25.6206 58.2749 25.6206 58.2661C25.6206 58.2574 25.6175 58.2489 25.6119 58.2422C25.527 58.0245 25.4367 57.8068 25.3464 57.5891L25.3145 57.5094L25.2667 57.382C25.2667 57.382 25.3145 57.5306 25.3358 57.605C25.3457 57.6482 25.3581 57.6907 25.373 57.7324C25.8208 59.2496 26.158 60.7972 26.3819 62.3631C26.3819 62.4109 26.4669 62.4109 26.4616 62.3631C26.3919 61.3832 26.2283 60.4123 25.973 59.4636Z" fill="#263238"/>
<path d="M43.5822 107.082L43.099 112.849L41.6068 130.437H25.6544L24.1622 112.849L23.6789 107.082H43.5822Z" fill="#37474F"/>
<path d="M43.5822 107.082L43.099 112.849H24.1622L23.6789 107.082H43.5822Z" fill="#263238"/>
<path d="M45.1488 104.766H22.1124V110.3H45.1488V104.766Z" fill="#37474F"/>
<path d="M151.243 7H64.7465C62.4053 7.01292 60.1688 7.5616 58.5287 8.52544C56.8886 9.48927 55.9792 10.7893 56.0004 12.1398V114.86C55.9806 116.21 56.8905 117.51 58.5302 118.474C60.17 119.437 62.4057 119.986 64.7465 120H151.243C153.585 119.987 155.823 119.439 157.464 118.475C159.106 117.511 160.018 116.211 160 114.86V12.1398C160.019 10.7885 159.108 9.488 157.466 8.52418C155.824 7.56035 153.586 7.01211 151.243 7ZM154.524 111.668C154.524 114.371 151.015 116.56 146.69 116.56H69.3051C64.9691 116.56 61.4601 114.374 61.4601 111.668V16.0352C61.4601 10.5315 64.9691 10.2594 69.3051 10.2594H84.8096C85.7107 10.2594 86.4475 10.8495 86.4475 11.5803V11.8861C86.4475 13.6014 88.0748 13.6075 90.0678 13.6075H125.916C127.931 13.6075 129.547 13.6075 129.547 11.8861V11.5803C129.547 10.8495 130.273 10.2594 131.19 10.2594H146.695C151.02 10.2594 154.529 10.9902 154.529 16.0352L154.524 111.668Z" fill="#263238"/>
<path d="M155 16.0312V115.892C155 118.717 151.418 121 147.003 121H68.0077C63.5818 121 60 118.717 60 115.892V16.0312C60 10.2842 63.5818 10 68.0077 10H83.8339C84.7537 10 85.5058 10.6162 85.5058 11.3825V11.7017C85.5058 13.4929 87.1668 13.4993 89.2012 13.4993H125.788C127.844 13.4993 129.494 13.4993 129.494 11.7017V11.3825C129.494 10.6162 130.236 10 131.172 10H147.003C151.418 10 155 10.7663 155 16.0312Z" fill="white"/>
<path opacity="0.1" d="M155 45V115.845C155 118.141 151.418 120 147.003 120H68.0077C63.5818 120 60 118.143 60 115.845V62.688C80.7931 61.4079 101.662 75.98 121.021 71.6852C138.73 67.7488 137.935 55.3059 144.509 49.6323C146.863 47.5818 150.546 45.9556 155 45Z" fill="#0F519F"/>
<path d="M112.45 15H103.55C103.404 15 103.264 14.9473 103.161 14.8536C103.058 14.7598 103 14.6326 103 14.5C103 14.3674 103.058 14.2402 103.161 14.1464C103.264 14.0527 103.404 14 103.55 14H112.45C112.596 14 112.736 14.0527 112.839 14.1464C112.942 14.2402 113 14.3674 113 14.5C113 14.6326 112.942 14.7598 112.839 14.8536C112.736 14.9473 112.596 15 112.45 15Z" fill="white"/>
<path d="M81.8435 16.9698L81.6948 17.1185L81.6099 17.2035C81.4203 17.0126 81.1949 16.8611 80.9465 16.7577C80.6982 16.6543 80.4318 16.601 80.1628 16.601C79.8938 16.601 79.6274 16.6543 79.379 16.7577C79.1307 16.8611 78.9052 17.0126 78.7157 17.2035L78.636 17.1185L78.4874 16.9698L78.6785 16.7999C78.8117 16.6902 78.9579 16.5974 79.114 16.5238C79.2981 16.4302 79.4949 16.364 79.6981 16.3273C79.7937 16.3273 79.8893 16.3273 79.9902 16.2848H80.2398H80.4416C80.6226 16.3084 80.8006 16.3511 80.9726 16.4122C81.0969 16.4603 81.2175 16.517 81.3337 16.5822C81.4573 16.6508 81.5731 16.7327 81.6789 16.8265L81.8382 16.9698H81.8435Z" fill="#A6A6A6"/>
<path d="M79.1936 17.6761L78.9547 17.4424C79.2135 17.1775 79.5539 17.0073 79.9211 16.9592C80.1834 16.9185 80.4515 16.9407 80.7035 17.0238C80.9555 17.1068 81.1842 17.2485 81.3709 17.4371L81.1319 17.6761C81.005 17.5481 80.8541 17.4465 80.6877 17.3772C80.5214 17.3079 80.343 17.2722 80.1628 17.2722C79.9826 17.2722 79.8042 17.3079 79.6378 17.3772C79.4715 17.4465 79.3205 17.5481 79.1936 17.6761Z" fill="#A6A6A6"/>
<path d="M80.8929 17.9151L80.6593 18.1488C80.5942 18.0834 80.5168 18.0316 80.4316 17.9962C80.3464 17.9608 80.255 17.9426 80.1628 17.9426C80.0705 17.9426 79.9792 17.9608 79.894 17.9962C79.8088 18.0316 79.7314 18.0834 79.6663 18.1488L79.4273 17.9151C79.5231 17.8182 79.6372 17.7412 79.763 17.6886C79.8888 17.6361 80.0238 17.609 80.1601 17.609C80.2964 17.609 80.4314 17.6361 80.5572 17.6886C80.683 17.7412 80.7971 17.8182 80.8929 17.9151Z" fill="#A6A6A6"/>
<path d="M80.3725 18.3612C80.3725 18.4032 80.3601 18.4442 80.3367 18.4792C80.3134 18.5141 80.2802 18.5413 80.2414 18.5574C80.2026 18.5735 80.1599 18.5777 80.1187 18.5695C80.0775 18.5613 80.0396 18.5411 80.0099 18.5114C79.9802 18.4817 79.96 18.4438 79.9518 18.4026C79.9436 18.3614 79.9478 18.3187 79.9639 18.2799C79.9799 18.2411 80.0072 18.2079 80.0421 18.1845C80.077 18.1612 80.1181 18.1487 80.1601 18.1487C80.188 18.1487 80.2156 18.1542 80.2414 18.1649C80.2672 18.1756 80.2906 18.1912 80.3103 18.211C80.33 18.2307 80.3457 18.2541 80.3564 18.2799C80.367 18.3056 80.3725 18.3333 80.3725 18.3612Z" fill="#A6A6A6"/>
<path d="M68 17.5043C67.9992 17.405 68.0279 17.3078 68.0825 17.2249C68.1371 17.142 68.2152 17.0773 68.3067 17.0389C68.3982 17.0005 68.4991 16.9902 68.5965 17.0094C68.6939 17.0286 68.7834 17.0763 68.8536 17.1464C68.9237 17.2166 68.9714 17.3061 68.9906 17.4035C69.0098 17.5009 68.9995 17.6018 68.9611 17.6933C68.9227 17.7848 68.858 17.8629 68.7751 17.9175C68.6922 17.9721 68.595 18.0008 68.4957 18C68.3643 18 68.2382 17.9478 68.1452 17.8548C68.0522 17.7618 68 17.6357 68 17.5043Z" fill="#A6A6A6"/>
<path d="M69 17.5043C68.9983 17.4052 69.0555 17.3081 69.1644 17.2253C69.2732 17.1425 69.4288 17.0778 69.6114 17.0393C69.794 17.0008 69.9953 16.9903 70.1898 17.0091C70.3844 17.0279 70.5634 17.0752 70.7041 17.1449C70.8448 17.2147 70.9409 17.3038 70.9801 17.4009C71.0194 17.498 71.0001 17.5987 70.9247 17.6903C70.8493 17.782 70.7211 17.8603 70.5565 17.9154C70.3918 17.9706 70.1982 18 70 18C69.7363 18 69.4832 17.9479 69.2959 17.8551C69.1086 17.7622 69.0023 17.6361 69 17.5043Z" fill="#A6A6A6"/>
<path d="M71 17.5043C70.9992 17.405 71.0279 17.3078 71.0825 17.2249C71.1371 17.142 71.2152 17.0773 71.3067 17.0389C71.3982 17.0005 71.4991 16.9902 71.5965 17.0094C71.6939 17.0286 71.7834 17.0763 71.8536 17.1464C71.9237 17.2166 71.9714 17.3061 71.9906 17.4035C72.0098 17.5009 71.9995 17.6018 71.9611 17.6933C71.9227 17.7848 71.858 17.8629 71.7751 17.9175C71.6922 17.9721 71.595 18.0008 71.4957 18C71.3643 18 71.2382 17.9478 71.1452 17.8548C71.0522 17.7618 71 17.6357 71 17.5043Z" fill="#A6A6A6"/>
<path d="M73 17.5043C72.9992 17.4052 73.0278 17.3081 73.0822 17.2253C73.1366 17.1425 73.2144 17.0778 73.3057 17.0393C73.397 17.0008 73.4977 16.9903 73.5949 17.0091C73.6922 17.0279 73.7817 17.0752 73.852 17.1449C73.9224 17.2147 73.9704 17.3038 73.9901 17.4009C74.0097 17.498 74.0001 17.5987 73.9623 17.6903C73.9246 17.782 73.8606 17.8603 73.7782 17.9154C73.6959 17.9706 73.5991 18 73.5 18C73.3682 18 73.2416 17.9479 73.148 17.8551C73.0543 17.7622 73.0011 17.6361 73 17.5043Z" fill="#A6A6A6"/>
<path d="M75 17.5043C74.9992 17.405 75.0279 17.3078 75.0825 17.2249C75.1371 17.142 75.2152 17.0773 75.3067 17.0389C75.3982 17.0005 75.4991 16.9902 75.5965 17.0094C75.6939 17.0286 75.7834 17.0763 75.8536 17.1464C75.9237 17.2166 75.9714 17.3061 75.9906 17.4035C76.0098 17.5009 75.9995 17.6018 75.9611 17.6933C75.9228 17.7848 75.858 17.8629 75.7751 17.9175C75.6923 17.9721 75.595 18.0008 75.4957 18C75.3643 18 75.2382 17.9478 75.1452 17.8548C75.0522 17.7618 75 17.6357 75 17.5043Z" fill="#A6A6A6"/>
<path d="M147 18H143V16H147V18ZM143.203 17.7768H146.789V16.2187H143.203V17.7768Z" fill="#A6A6A6"/>
<path d="M146 17H143V18H146V17Z" fill="#A6A6A6"/>
<path d="M148 17H147V18H148V17Z" fill="#A6A6A6"/>
<ellipse cx="87.5" cy="75" rx="13.5" ry="13" fill="#0F519F"/>
<ellipse cx="127.5" cy="75" rx="13.5" ry="13" fill="#FF800B"/>
<g clip-path="url(#clip0_25_312)">
<path fill-rule="evenodd" clip-rule="evenodd" d="M95 65C95 63.4087 95.6848 61.8826 96.9038 60.7574C98.1228 59.6321 99.7761 59 101.5 59C103.224 59 104.877 59.6321 106.096 60.7574C107.315 61.8826 108 63.4087 108 65C108 66.5913 107.315 68.1174 106.096 69.2426C104.877 70.3679 103.224 71 101.5 71C99.7761 71 98.1228 70.3679 96.9038 69.2426C95.6848 68.1174 95 66.5913 95 65V65ZM101.129 67.568L104.871 63.2496L104.195 62.7504L101.004 66.4312L98.744 64.6928L98.1893 65.3072L101.129 67.5688V67.568Z" fill="#0BB76F"/>
</g>
<path d="M179.507 134.77C179.507 134.77 156.73 132.29 156.364 132.014C155.998 131.738 172.008 83.5989 172.008 83.5989H191.604L179.507 134.77Z" fill="#37474F"/>
<path d="M178.131 130.442C172.035 129.342 165.917 128.482 159.726 127.898C159.651 127.898 159.63 127.999 159.726 128.01C165.822 129.13 171.966 129.969 178.131 130.575C178.146 130.57 178.158 130.562 178.167 130.55C178.176 130.538 178.181 130.523 178.181 130.508C178.181 130.493 178.176 130.479 178.167 130.467C178.158 130.455 178.146 130.446 178.131 130.442Z" fill="#263238"/>
<path d="M172.64 83.5298V83.5989L181.503 126.247L191.487 84.0025C191.529 83.8113 191.556 83.6679 191.567 83.5989V83.5298H172.64Z" fill="#263238"/>
<path d="M172.64 83.5245C172.64 83.5245 173.209 92.892 175.45 100.289C175.63 100.9 175.821 101.505 176.028 102.079C178.007 102.846 179.911 103.793 181.716 104.909C181.716 104.909 181.716 132.284 181.822 135.487C181.822 135.487 203.212 134.913 204.869 134.424C204.242 126.257 202.947 114.521 201.555 102.456C201.555 102.456 203.547 91.421 199.341 83.5032L172.64 83.5245Z" fill="#37474F"/>
<path d="M184.663 106.173C183.76 105.547 182.794 105.021 181.838 104.485C180.882 103.948 179.873 103.423 178.859 102.934C176.86 102.051 174.804 101.304 172.704 100.698C172.651 100.698 172.619 100.767 172.667 100.794C174.674 101.654 176.623 102.642 178.62 103.529C179.624 103.975 180.638 104.4 181.641 104.846C182.645 105.292 183.628 105.786 184.642 106.211L184.663 106.173Z" fill="#263238"/>
<path d="M179.315 96.0145C179.289 95.0321 179.22 94.0497 179.172 93.0673C179.055 90.7466 178.965 88.4101 178.747 86.0948C178.743 86.0791 178.734 86.0652 178.721 86.0553C178.708 86.0455 178.692 86.0401 178.676 86.0401C178.659 86.0401 178.643 86.0455 178.63 86.0553C178.618 86.0652 178.608 86.0791 178.604 86.0948C178.577 87.8897 178.646 89.6899 178.684 91.4848C178.684 92.3822 178.726 93.285 178.753 94.1825C178.779 95.0799 178.832 95.903 178.753 96.758C178.705 97.4059 178.561 98.6644 177.69 98.7388C176.82 98.8131 176.289 98.0856 176.097 97.459C175.644 95.8284 175.36 94.1558 175.248 92.4672C175.152 91.4848 175.014 87.3427 175.067 86.3497C175.067 86.2859 174.972 86.2859 174.966 86.3497C174.913 87.3639 174.775 88.3729 174.738 89.3925C174.701 90.4121 174.701 91.4211 174.77 92.43C174.839 93.439 174.913 94.3736 175.057 95.3348C175.155 96.2148 175.366 97.0785 175.683 97.905C175.804 98.2571 176.01 98.574 176.282 98.8277C176.554 99.0815 176.885 99.2643 177.244 99.3601C177.337 99.3783 177.431 99.3889 177.526 99.3919C177.526 99.599 177.563 99.8062 177.579 100.013C177.579 100.337 177.643 100.661 177.685 100.985C177.731 101.303 177.798 101.617 177.887 101.925C177.954 102.24 178.064 102.544 178.216 102.828C178.243 102.87 178.301 102.828 178.306 102.796C178.315 102.486 178.288 102.176 178.227 101.872C178.184 101.553 178.142 101.235 178.078 100.921C178.014 100.608 177.956 100.305 177.892 99.9973C177.85 99.7955 177.823 99.5831 177.781 99.3707C178.028 99.3287 178.261 99.2256 178.459 99.0707C178.656 98.9158 178.812 98.7141 178.912 98.4839C179.234 97.7025 179.372 96.8577 179.315 96.0145Z" fill="#263238"/>
<path d="M202.384 129.863C196.185 129.895 189.989 130.182 183.797 130.723C183.782 130.723 183.767 130.729 183.756 130.74C183.745 130.751 183.739 130.766 183.739 130.782C183.739 130.797 183.745 130.812 183.756 130.823C183.767 130.834 183.782 130.84 183.797 130.84C189.989 130.84 196.187 130.527 202.357 129.996C202.469 129.985 202.469 129.858 202.384 129.863Z" fill="#263238"/>
<path d="M200.005 95.5421C198.608 95.7145 197.198 95.7519 195.794 95.6536C194.463 95.519 193.194 95.0232 192.124 94.2198C189.804 92.4142 188.784 89.467 188.157 86.7056C188.154 86.695 188.147 86.6857 188.138 86.6792C188.129 86.6726 188.118 86.6691 188.107 86.6691C188.096 86.6691 188.085 86.6726 188.076 86.6792C188.067 86.6857 188.06 86.695 188.056 86.7056C188.322 89.1059 188.837 91.5858 190.388 93.5135C191.052 94.3654 191.895 95.0614 192.857 95.5527C193.879 96.0257 194.997 96.2547 196.123 96.2218C197.443 96.21 198.756 96.0316 200.031 95.6908C200.044 95.6813 200.053 95.6686 200.059 95.654C200.065 95.6395 200.066 95.6237 200.063 95.6083C200.061 95.593 200.054 95.5787 200.043 95.567C200.033 95.5553 200.02 95.5467 200.005 95.5421Z" fill="#263238"/>
<path d="M182.762 56.516C178.981 66.2181 166.9 77.5345 162.8 77.9009C158.021 78.331 145.674 72.8454 140.895 66.2181C139.764 64.6249 149.885 57.1426 151.595 58.3162C155.111 60.7218 161.728 63.9877 162.296 64.0355C163.427 64.1205 170.936 58.2366 176.931 54.0361C184.392 48.7947 184.27 52.65 182.762 56.516Z" fill="#D3766A"/>
<path d="M142.355 67.9598C142.355 67.9598 137.974 63.4407 137.512 59.1817C137.188 56.2345 137.512 48.4229 144.58 43.1338C146.258 41.8752 149.546 41.2805 147.544 44.3286C146.12 46.4899 144.564 47.4352 143.97 48.8424C143.97 48.8424 148.218 48.5822 149.429 50.3134C150.471 51.8294 151.405 53.4177 152.222 55.0662C151.953 55.2834 151.671 55.4838 151.378 55.6663C151.378 55.6663 152.339 57.3921 151.675 60.3129L142.355 67.9598Z" fill="#D3766A"/>
<path d="M152.811 40.1016L157.67 55.5282C157.862 55.9796 157.67 56.3672 157.203 56.3938L149.121 56.8399C148.874 56.836 148.633 56.7621 148.426 56.6267C148.219 56.4913 148.055 56.3001 147.952 56.0752L143.093 40.6432C143.041 40.5587 143.012 40.4618 143.009 40.3624C143.006 40.2629 143.029 40.1645 143.077 40.077C143.124 39.9896 143.194 39.9163 143.279 39.8647C143.364 39.813 143.461 39.7848 143.561 39.7829L151.643 39.3103C151.893 39.3172 152.136 39.3953 152.343 39.5354C152.55 39.6756 152.712 39.872 152.811 40.1016Z" fill="#455A64"/>
<path d="M151.829 40.1494L156.688 55.576C156.879 56.0274 156.688 56.4151 156.221 56.4416L148.144 56.909C147.896 56.9054 147.654 56.8317 147.446 56.6964C147.238 56.561 147.073 56.3696 146.97 56.1443L142.116 40.7123C141.92 40.2662 142.116 39.8786 142.578 39.852L150.661 39.3794C150.908 39.3838 151.15 39.4585 151.357 39.5948C151.563 39.7311 151.727 39.9235 151.829 40.1494Z" fill="#37474F"/>
<path d="M149.705 40.9938C149.717 41.1284 149.768 41.2564 149.853 41.3618C149.937 41.4673 150.051 41.5454 150.179 41.5863C150.308 41.6273 150.446 41.6293 150.576 41.5921C150.706 41.5549 150.822 41.4801 150.909 41.3772C150.997 41.2743 151.052 41.1479 151.068 41.0137C151.083 40.8796 151.059 40.7437 150.998 40.6233C150.937 40.5029 150.841 40.4033 150.724 40.3369C150.606 40.2705 150.471 40.2404 150.337 40.2504C150.154 40.2653 149.985 40.352 149.867 40.4914C149.748 40.6308 149.69 40.8115 149.705 40.9938Z" fill="#263238"/>
<path d="M137.937 54.9972C138.829 53.7227 140.757 51.0516 143.093 49.4213C145.69 47.6052 151.176 44.8119 152.498 46.7396C153.465 48.1574 151.463 49.3947 151.463 49.3947C151.463 49.3947 153.974 48.7203 154.569 50.1913C155.1 51.5295 153.507 52.4057 153.507 52.4057C153.507 52.4057 155.1 52.257 155.376 53.643C155.706 55.3158 152.312 55.353 151.181 57.3338C150.921 57.7905 137.937 54.9972 137.937 54.9972Z" fill="#D3766A"/>
<path d="M144.554 52.4854C146.47 50.7848 148.86 49.7102 151.404 49.4053C151.468 49.4053 151.505 49.4478 151.447 49.4637C149.039 50.2054 146.73 51.236 144.57 52.5331L144.554 52.4854Z" fill="#263238"/>
<path d="M146.46 55.0502C148.517 53.5367 150.944 52.6065 153.486 52.3578C153.55 52.3578 153.581 52.4056 153.523 52.4216C151.08 53.035 148.716 53.9259 146.476 55.0768C146.476 55.0768 146.444 55.0608 146.46 55.0502Z" fill="#263238"/>
<path d="M151.723 56.6594C151.723 57.5993 151.723 58.5127 151.617 59.4155C151.574 59.8721 151.505 60.3182 151.42 60.7643C151.325 61.2155 151.202 61.6606 151.054 62.0972C151.625 61.324 151.961 60.4018 152.02 59.442C152.063 58.9703 152.063 58.4958 152.02 58.0241C151.976 57.559 151.876 57.1008 151.723 56.6594Z" fill="#263238"/>
<path d="M177.632 66.5578L170.198 58.2205C170.198 58.2205 176.129 53.1385 180.431 51.2108C184.732 49.2831 185.332 52.0658 183.442 56.2451C181.551 60.4243 177.632 66.5578 177.632 66.5578Z" fill="#FFC727"/>
<path opacity="0.1" d="M178.822 52.4005C178.937 52.3598 179.063 52.3604 179.178 52.402C179.293 52.4436 179.391 52.5237 179.454 52.6288C179.629 52.9262 179.671 53.4519 179.878 53.4413C180.218 53.4413 180.16 52.7934 180.409 52.4058C180.47 52.2971 180.563 52.2094 180.675 52.1544C180.787 52.0994 180.913 52.0797 181.036 52.0978C181.123 52.113 181.205 52.1477 181.277 52.1993C181.349 52.251 181.408 52.3181 181.449 52.3958C181.491 52.4735 181.515 52.5597 181.519 52.6478C181.523 52.736 181.507 52.8239 181.472 52.9049C181.307 53.3829 180.542 53.5741 180.68 53.8555C180.818 54.137 181.296 53.6431 181.742 53.6059C181.91 53.5813 182.08 53.623 182.217 53.7223C182.354 53.8215 182.446 53.9703 182.475 54.137C182.501 54.2307 182.505 54.3294 182.485 54.4248C182.466 54.5202 182.424 54.6097 182.364 54.6858C182.303 54.762 182.225 54.8227 182.137 54.863C182.048 54.9033 181.951 54.922 181.854 54.9176C181.408 54.9441 180.861 54.6096 180.728 54.7158C180.595 54.822 181.057 55.2468 181.185 55.6292C181.217 55.7074 181.233 55.7913 181.231 55.8759C181.23 55.9604 181.211 56.0438 181.176 56.1208C181.141 56.1979 181.091 56.267 181.029 56.324C180.966 56.381 180.893 56.4247 180.813 56.4523C180.725 56.4843 180.632 56.498 180.539 56.4924C180.446 56.4867 180.355 56.462 180.271 56.4196C180.188 56.3773 180.115 56.3183 180.055 56.2462C179.996 56.1742 179.952 56.0907 179.926 56.0009C179.793 55.6345 180.112 54.7583 179.926 54.6043C179.74 54.4503 179.337 55.199 178.864 55.3796C178.708 55.4443 178.534 55.4497 178.375 55.395C178.215 55.3402 178.082 55.2289 177.999 55.0822C177.959 55.0055 177.936 54.921 177.932 54.8347C177.928 54.7484 177.942 54.6622 177.975 54.582C178.007 54.5018 178.056 54.4296 178.119 54.3702C178.182 54.3108 178.257 54.2656 178.338 54.2379C178.699 54.0839 179.4 54.2378 179.4 54.0148C179.4 53.7918 178.747 53.6112 178.567 53.3245C178.511 53.2505 178.473 53.1647 178.456 53.0737C178.439 52.9828 178.443 52.8891 178.467 52.7998C178.492 52.7106 178.537 52.6282 178.598 52.5589C178.659 52.4897 178.736 52.4355 178.822 52.4005ZM177.632 66.5579L177.855 66.1968C177.425 65.7879 176.719 65.4959 176.432 65.2144L177.632 66.5579ZM179.305 62.676C179.23 62.5418 179.128 62.4245 179.005 62.3316C178.882 62.2387 178.742 62.1722 178.592 62.1363C178.442 62.1004 178.287 62.0958 178.135 62.1229C177.984 62.15 177.84 62.2081 177.712 62.2937C177.08 62.6601 176.538 63.6691 176.251 63.4301C175.965 63.1912 176.421 62.145 176.214 61.3644C176.188 61.1914 176.121 61.027 176.019 60.8845C175.917 60.742 175.784 60.6253 175.629 60.5437C175.474 60.4621 175.302 60.418 175.127 60.4148C174.952 60.4116 174.779 60.4495 174.621 60.5253C174.333 60.6342 174.1 60.8511 173.97 61.1299C173.84 61.4087 173.824 61.7272 173.925 62.0176C174.132 62.4771 174.398 62.9074 174.717 63.2974L176.358 65.1294C176.328 65.0937 176.309 65.0498 176.305 65.0034C176.3 64.957 176.309 64.9103 176.331 64.8692C176.543 64.5028 178.206 64.7577 178.806 64.3966C178.899 64.3403 178.988 64.2763 179.071 64.2054C179.269 64.0338 179.407 63.8029 179.464 63.5469C179.514 63.2487 179.458 62.9423 179.305 62.6814V62.676Z" fill="black"/>
<path opacity="0.1" d="M172.152 60.4298L177.632 66.558C177.632 66.558 181.53 60.4298 183.42 56.2452C184.838 53.1015 184.849 50.749 182.937 50.6003L172.152 60.4298Z" fill="black"/>
<path d="M172.306 56.9568C174.611 59.1347 176.768 61.464 178.763 63.9293C178.763 63.9293 178.721 63.993 178.705 63.9824C176.836 62.1875 173.394 58.3322 172.226 57.0364C172.205 57.0099 172.279 56.9355 172.306 56.9568Z" fill="#263238"/>
<path d="M180.654 53.8555H180.68C180.643 55.4486 180.654 59.0649 183.107 58.7516C184.089 58.5361 184.989 58.0462 185.704 57.3391C186.45 56.6837 187.121 55.9482 187.706 55.1459C188.364 54.2644 188.954 53.2873 189.549 52.3633C189.575 52.3208 189.628 52.3632 189.607 52.4004C189.135 53.4132 188.588 54.3894 187.971 55.3211C187.365 56.2219 186.64 57.0365 185.815 57.7427C185.055 58.4748 184.09 58.9598 183.049 59.134C182.593 59.1732 182.137 59.0534 181.76 58.7949C181.382 58.5365 181.106 58.1553 180.978 57.7161C180.584 56.4693 180.473 55.1504 180.654 53.8555Z" fill="#263238"/>
<path d="M200.796 90.7414C200.711 90.821 171.169 87.6401 170.893 87.279C170.506 86.7745 178.933 56.7018 181.551 51.7685C182.672 49.6443 188.014 49.3629 190.127 51.349C195.438 56.3248 199.097 72.4099 199.872 77.2318C201.157 85.1761 201.088 90.4493 200.796 90.7414Z" fill="white"/>
<path d="M182.13 50.871L174.887 92.4194L169.305 89.5518C169.305 89.5518 178.556 58.964 179.161 56.8398C179.767 54.7157 181.004 51.6675 182.13 50.871Z" fill="#FFC727"/>
<path d="M188.386 50.0107C188.019 49.862 187.701 66.4091 187.658 69.1281C187.616 71.847 187.35 93.3859 187.35 93.3859L203.69 91.2617C203.69 91.2617 200.796 72.0966 195.608 60.3925C192.682 53.8023 191.094 51.1418 188.386 50.0107Z" fill="#FFC727"/>
<path opacity="0.1" d="M194.668 60.4243C194.58 60.4581 194.487 60.473 194.393 60.4681C194.299 60.4633 194.207 60.4388 194.124 60.3962C194.04 60.3537 193.966 60.294 193.907 60.2211C193.848 60.1481 193.805 60.0636 193.781 59.9729C193.653 59.6065 193.967 58.7303 193.781 58.5763C193.595 58.4223 193.191 59.1764 192.719 59.3516C192.564 59.4197 192.39 59.4269 192.23 59.3718C192.071 59.3166 191.938 59.2032 191.859 59.0542C191.819 58.9779 191.796 58.8938 191.791 58.8077C191.787 58.7217 191.801 58.6356 191.833 58.5555C191.864 58.4754 191.913 58.4031 191.975 58.3434C192.037 58.2838 192.112 58.2382 192.193 58.2099C192.554 58.0612 193.255 58.2099 193.255 57.9869C193.255 57.7638 192.597 57.5833 192.416 57.2965C192.359 57.2245 192.318 57.1403 192.298 57.0503C192.278 56.9603 192.279 56.867 192.3 56.7773C192.322 56.6877 192.364 56.6041 192.422 56.5331C192.481 56.462 192.555 56.4053 192.639 56.3672C192.755 56.3252 192.883 56.325 192.999 56.3667C193.115 56.4083 193.213 56.4893 193.276 56.5955C193.446 56.8929 193.489 57.4187 193.701 57.4133C193.914 57.408 193.94 57.2434 194.004 57.0257C194.259 57.5567 194.535 58.0878 194.79 58.7038C194.668 58.6666 194.578 58.656 194.535 58.7038C194.376 58.8312 194.864 59.2348 194.997 59.6171C195.028 59.6918 195.045 59.7718 195.045 59.8528C195.046 59.9338 195.03 60.014 195 60.089C194.969 60.164 194.924 60.2322 194.867 60.2897C194.81 60.3472 194.742 60.393 194.668 60.4243ZM189.118 78.3575C188.683 78.3946 188.194 78.862 188.056 78.6071C187.918 78.3522 188.683 78.1344 188.848 77.6565C188.883 77.5758 188.899 77.4882 188.895 77.4004C188.891 77.3125 188.867 77.2266 188.826 77.1493C188.784 77.072 188.724 77.0053 188.653 76.9543C188.581 76.9032 188.499 76.8691 188.412 76.8546C188.29 76.8349 188.165 76.8534 188.054 76.9075C187.942 76.9617 187.851 77.049 187.791 77.1573C187.674 77.3898 187.586 77.636 187.531 77.8902C187.531 78.9522 187.531 80.0143 187.493 81.0764C187.585 81.159 187.697 81.2147 187.818 81.2372C187.939 81.2597 188.064 81.2482 188.179 81.2038C188.258 81.1767 188.332 81.1336 188.394 81.0772C188.457 81.0208 188.507 80.9523 188.542 80.8758C188.578 80.7993 188.597 80.7165 188.599 80.6323C188.602 80.5481 188.587 80.4643 188.556 80.386C188.423 80.0037 187.934 79.6001 188.094 79.4726C188.253 79.3452 188.773 79.701 189.219 79.6691C189.317 79.6744 189.415 79.6564 189.504 79.6164C189.593 79.5765 189.672 79.5159 189.733 79.4396C189.794 79.3633 189.836 79.2736 189.856 79.1777C189.876 79.0819 189.872 78.9827 189.846 78.8885C189.816 78.7235 189.724 78.5764 189.588 78.4775C189.453 78.3787 189.285 78.3357 189.118 78.3575ZM181.434 54.8697L181.652 53.6164C181.238 53.6961 180.802 54.0944 180.68 53.8554C180.558 53.6164 181.307 53.3828 181.471 52.9048C181.503 52.8292 181.519 52.7477 181.518 52.6656C181.516 52.5836 181.498 52.5027 181.463 52.4282C181.429 52.3537 181.379 52.2873 181.317 52.2331C181.256 52.1789 181.183 52.1382 181.105 52.1136C180.642 52.9111 180.245 53.746 179.921 54.6095C180.101 54.7635 179.783 55.6397 179.921 56.0061C179.947 56.0958 179.99 56.1794 180.05 56.2514C180.109 56.3234 180.183 56.3825 180.266 56.4248C180.349 56.4672 180.44 56.4919 180.533 56.4975C180.627 56.5032 180.72 56.4895 180.808 56.4575C180.888 56.4298 180.961 56.3862 181.023 56.3292C181.086 56.2722 181.136 56.2031 181.171 56.126C181.206 56.0489 181.224 55.9656 181.226 55.8811C181.227 55.7965 181.212 55.7126 181.179 55.6344C181.052 55.252 180.563 54.8537 180.723 54.721C180.882 54.5882 181.11 54.79 181.434 54.8697ZM202.628 90.651C202.75 90.5554 203.207 90.8209 203.621 90.8475C203.579 90.5607 203.51 90.1359 203.414 89.5889C203.048 89.7111 202.697 89.9925 202.596 89.7854C202.495 89.5783 203.063 89.3553 203.313 88.9782C203.265 88.7074 203.212 88.4153 203.159 88.102C203.094 88.0632 203.022 88.0396 202.947 88.033C202.825 88.014 202.7 88.0328 202.589 88.0869C202.477 88.1411 202.386 88.2278 202.325 88.3357C202.07 88.7286 202.129 89.3659 201.794 89.3977C201.582 89.3977 201.539 88.8667 201.369 88.5853C201.306 88.479 201.208 88.3981 201.092 88.3564C200.976 88.3147 200.848 88.3149 200.732 88.3569C200.649 88.3949 200.575 88.4514 200.517 88.5222C200.459 88.5931 200.418 88.6763 200.397 88.7655C200.376 88.8547 200.375 88.9475 200.396 89.0369C200.416 89.1262 200.457 89.2097 200.514 89.2809C200.695 89.5677 201.348 89.812 201.348 89.9766C201.348 90.1412 200.631 90.0456 200.286 90.1943C200.205 90.2233 200.13 90.2694 200.068 90.3295C200.006 90.3897 199.957 90.4625 199.925 90.543C199.894 90.6235 199.88 90.7099 199.884 90.7963C199.889 90.8827 199.912 90.9672 199.952 91.044C200.033 91.1911 200.166 91.303 200.325 91.3579C200.483 91.4128 200.657 91.4069 200.812 91.3413C201.263 91.1608 201.635 90.3749 201.874 90.566C202.001 90.6775 201.874 91.1555 201.847 91.5484L203.032 91.3945C202.809 91.0493 202.495 90.7625 202.628 90.651ZM175.306 90.0084L175.524 88.7817C175.131 88.8879 174.733 89.2331 174.621 89.0101C174.51 88.7871 175.248 88.5375 175.412 88.0542C175.446 87.9735 175.462 87.8861 175.457 87.7986C175.453 87.711 175.429 87.6256 175.387 87.5486C175.346 87.4716 175.287 87.405 175.216 87.3537C175.145 87.3024 175.063 87.2678 174.977 87.2524C174.854 87.2322 174.728 87.2505 174.616 87.3047C174.504 87.3588 174.411 87.4463 174.35 87.555C174.095 87.948 174.154 88.5853 173.819 88.6171C173.607 88.6171 173.564 88.0861 173.394 87.8046C173.332 87.6974 173.234 87.6154 173.118 87.5727C173.002 87.53 172.874 87.5294 172.757 87.571C172.674 87.6095 172.6 87.6667 172.542 87.738C172.484 87.8093 172.443 87.8929 172.422 87.9825C172.401 88.0721 172.4 88.1653 172.421 88.255C172.441 88.3447 172.482 88.4286 172.539 88.5003C172.72 88.787 173.373 88.9995 173.373 89.1959C173.373 89.3924 172.656 89.265 172.311 89.4137C172.23 89.442 172.155 89.4876 172.093 89.5472C172.031 89.6068 171.982 89.6792 171.951 89.7593C171.919 89.8394 171.905 89.9254 171.909 90.0115C171.914 90.0975 171.937 90.1816 171.977 90.258C172.057 90.4061 172.189 90.5191 172.348 90.5751C172.507 90.631 172.681 90.6259 172.837 90.5607C173.288 90.3802 173.66 89.5889 173.899 89.7801C174.138 89.9713 173.761 90.8103 173.899 91.1767C173.923 91.2667 173.966 91.3507 174.025 91.4231C174.084 91.4956 174.157 91.5549 174.24 91.5974C174.323 91.6399 174.414 91.6646 174.507 91.6699C174.6 91.6752 174.693 91.6609 174.78 91.6281C174.852 91.6084 174.918 91.5747 174.977 91.5292C175.035 91.4836 175.084 91.427 175.12 91.3626C175.188 91.2359 175.213 91.0903 175.189 90.9484C175.184 90.9082 175.173 90.869 175.157 90.8315C175.025 90.4492 174.536 90.0456 174.695 89.9182C174.855 89.7907 175.009 89.9235 175.306 90.0084ZM191.97 66.6428C191.763 67.057 191.97 67.9863 191.752 68.1137C191.535 68.2412 191.158 67.3225 190.722 67.0039C190.631 66.9277 190.525 66.8719 190.411 66.8405C190.297 66.8091 190.177 66.8028 190.06 66.822C189.943 66.8411 189.831 66.8853 189.733 66.9516C189.635 67.0178 189.552 67.1045 189.49 67.2057C189.375 67.4063 189.338 67.6424 189.386 67.8688C189.434 68.0951 189.564 68.2958 189.75 68.4324C190.281 68.836 191.476 68.7138 191.407 69.1068C191.338 69.4998 190.101 69.6803 189.766 70.0945C189.677 70.1867 189.607 70.2968 189.563 70.4177C189.519 70.5385 189.501 70.6673 189.51 70.7957C189.519 70.924 189.555 71.049 189.615 71.1624C189.676 71.2759 189.76 71.3752 189.862 71.454C189.951 71.5291 190.054 71.5852 190.165 71.6188C190.276 71.6524 190.393 71.6628 190.509 71.6494C190.624 71.6359 190.736 71.5989 190.837 71.5406C190.937 71.4824 191.025 71.4041 191.094 71.3106C191.45 70.8858 191.572 70.0255 191.837 70.1211C192.103 70.2167 192.055 71.0823 192.406 71.5867C192.469 71.7045 192.56 71.8055 192.67 71.8813C192.781 71.9571 192.908 72.0055 193.04 72.0227C193.173 72.0398 193.308 72.0251 193.434 71.9797C193.56 71.9344 193.674 71.8598 193.765 71.762C193.944 71.6113 194.055 71.3963 194.076 71.1636C194.097 70.9309 194.025 70.6994 193.877 70.5193C193.521 70.0308 192.629 69.7918 192.814 69.4573C193 69.1227 193.818 69.8556 194.498 69.7122C194.618 69.6947 194.732 69.6506 194.833 69.5829C194.933 69.5152 195.017 69.4257 195.078 69.3212C195.14 69.2166 195.176 69.0996 195.186 68.9788C195.196 68.8581 195.179 68.7366 195.135 68.6235C195.073 68.4631 194.962 68.3258 194.818 68.2307C194.675 68.1357 194.505 68.0874 194.333 68.0925C193.691 68.0925 192.984 68.5917 192.74 68.2093C192.586 67.9651 193.17 67.5402 193.393 67.1473C193.474 66.9987 193.501 66.8264 193.468 66.6605C193.435 66.4945 193.344 66.3454 193.213 66.2392C193.108 66.1697 192.989 66.1247 192.865 66.1077C192.74 66.0906 192.613 66.1019 192.494 66.1407C192.374 66.1795 192.265 66.2448 192.175 66.3318C192.084 66.4187 192.014 66.525 191.97 66.6428ZM189.495 86.8753C189.766 87.2523 190.69 87.4913 190.701 87.7568C190.712 88.0224 189.719 87.9162 189.235 88.1498C189.126 88.1949 189.027 88.263 188.946 88.3497C188.866 88.4363 188.804 88.5394 188.767 88.6518C188.73 88.7642 188.717 88.8834 188.73 89.0011C188.743 89.1189 188.781 89.2324 188.842 89.334C188.966 89.5302 189.159 89.6735 189.382 89.7363C189.606 89.799 189.845 89.7768 190.053 89.6739C190.653 89.3924 191.115 88.2773 191.418 88.5215C191.721 88.7658 191.317 89.9447 191.529 90.4386C191.572 90.5589 191.639 90.6692 191.726 90.7622C191.813 90.8553 191.919 90.9292 192.036 90.9791C192.154 91.0291 192.28 91.054 192.408 91.0524C192.535 91.0508 192.661 91.0226 192.777 90.9696C192.885 90.9266 192.983 90.8618 193.064 90.7794C193.146 90.6969 193.209 90.5986 193.251 90.4905C193.293 90.3824 193.312 90.2668 193.307 90.151C193.302 90.0352 193.274 89.9216 193.223 89.8173C193.011 89.2862 192.305 88.7924 192.512 88.6012C192.719 88.41 193.468 88.8561 194.073 88.7764C194.207 88.775 194.339 88.742 194.458 88.6798C194.577 88.6177 194.679 88.5284 194.757 88.4191C194.834 88.3098 194.885 88.1837 194.905 88.0511C194.924 87.9184 194.912 87.783 194.87 87.6559C194.815 87.4274 194.674 87.2292 194.475 87.1032C194.277 86.9773 194.037 86.9337 193.807 86.9815C193.213 87.0665 192.586 87.7515 192.39 87.417C192.193 87.0824 193.207 86.716 193.393 86.0416C193.432 85.9281 193.445 85.8073 193.431 85.6882C193.418 85.569 193.378 85.4544 193.314 85.3527C193.25 85.2509 193.165 85.1647 193.064 85.1001C192.963 85.0356 192.849 84.9944 192.729 84.9795C192.559 84.9637 192.388 85.0006 192.239 85.0851C192.089 85.1696 191.97 85.2977 191.896 85.4521C191.582 86.0097 191.715 86.8806 191.259 86.9231C190.966 86.9497 190.866 86.2328 190.605 85.861C190.51 85.7204 190.369 85.6174 190.206 85.5699C190.043 85.5224 189.869 85.5333 189.713 85.6008C189.605 85.661 189.511 85.7448 189.439 85.8461C189.367 85.9473 189.319 86.0634 189.298 86.1858C189.277 86.3082 189.284 86.4336 189.318 86.553C189.353 86.6723 189.413 86.7825 189.495 86.8753ZM176.968 80.5029L177.239 78.9097C177.153 78.8849 177.064 78.8706 176.974 78.8673C176.331 78.8673 175.625 79.3717 175.38 78.9841C175.221 78.7398 175.805 78.3203 176.034 77.922C176.115 77.7727 176.142 77.5995 176.109 77.4327C176.076 77.2658 175.985 77.1158 175.853 77.0086C175.749 76.937 175.629 76.8904 175.504 76.8722C175.378 76.854 175.251 76.8648 175.13 76.9038C175.009 76.9428 174.899 77.0089 174.809 77.097C174.718 77.1852 174.648 77.293 174.605 77.4122C174.393 77.8264 174.605 78.7557 174.382 78.8832C174.159 79.0106 173.787 78.0919 173.352 77.7733C173.226 77.6823 173.081 77.6223 172.927 77.5981L172.428 79.2337C172.959 79.6001 174.106 79.4939 174.021 79.8762C173.936 80.2586 172.709 80.4498 172.375 80.864C172.286 80.9566 172.217 81.0668 172.174 81.1875C172.13 81.3083 172.112 81.4368 172.121 81.5649C172.13 81.693 172.166 81.8178 172.226 81.9312C172.286 82.0446 172.369 82.1442 172.47 82.2234C172.559 82.2981 172.662 82.3539 172.773 82.3875C172.884 82.4211 173.001 82.4318 173.116 82.4189C173.231 82.4059 173.343 82.3697 173.444 82.3124C173.544 82.255 173.632 82.1778 173.702 82.0854C174.058 81.6552 174.18 80.7949 174.446 80.8905C174.711 80.9861 174.664 81.8517 175.014 82.3562C175.079 82.4735 175.17 82.574 175.281 82.6496C175.391 82.7252 175.518 82.7737 175.651 82.7913C175.784 82.8089 175.919 82.795 176.045 82.7508C176.172 82.7066 176.286 82.6332 176.379 82.5367C176.556 82.3836 176.666 82.1675 176.686 81.9344C176.705 81.7013 176.633 81.4696 176.485 81.2888C176.129 80.8002 175.237 80.5613 175.423 80.2267C175.609 79.8922 176.336 80.5082 176.968 80.4976V80.5029ZM198.985 79.7594C199.341 79.5258 200.706 80.5135 201.407 80.471C201.483 80.4659 201.56 80.4553 201.635 80.4391C201.476 79.6904 201.306 78.9257 201.104 78.1397C200.43 78.2831 199.697 78.7398 199.569 78.4424C199.442 78.1451 200.302 77.3804 200.477 76.5838C200.534 76.4175 200.551 76.24 200.526 76.0659C200.502 75.8918 200.436 75.7261 200.335 75.5821C200.234 75.4382 200.101 75.3202 199.945 75.2377C199.79 75.1552 199.618 75.1106 199.442 75.1075C199.136 75.0711 198.828 75.1558 198.584 75.3433C198.34 75.5309 198.179 75.8064 198.135 76.1112C197.981 76.8865 198.544 77.9698 198.045 78.0601C197.546 78.1504 197.541 76.7378 196.792 76.2121C196.668 76.1118 196.524 76.0406 196.369 76.0037C196.215 75.9667 196.053 75.965 195.898 75.9987C195.743 76.0323 195.597 76.1004 195.471 76.198C195.345 76.2956 195.243 76.4202 195.172 76.5626C195.078 76.7663 195.048 76.9942 195.087 77.2154C195.126 77.4366 195.232 77.6406 195.39 77.7999C195.921 78.4371 197.073 78.6549 196.925 79.2443C196.829 79.616 195.9 79.4249 195.3 79.5735C195.083 79.6277 194.892 79.7563 194.76 79.9367C194.628 80.1172 194.563 80.3382 194.578 80.5613C194.603 80.7255 194.665 80.8818 194.76 81.0185C194.854 81.1552 194.978 81.2688 195.123 81.3505C195.268 81.4323 195.429 81.4802 195.595 81.4907C195.761 81.5012 195.927 81.4739 196.08 81.4109C196.67 81.241 197.371 80.2055 197.705 80.3117C198.04 80.4179 197.466 81.5915 197.541 82.2978C197.55 82.4534 197.592 82.6053 197.665 82.7432C197.738 82.8811 197.839 83.0019 197.962 83.0974C198.086 83.1929 198.228 83.2611 198.379 83.2972C198.531 83.3333 198.689 83.3365 198.842 83.3067C199.138 83.2394 199.399 83.065 199.574 82.817C199.75 82.569 199.827 82.2649 199.792 81.9632C199.723 81.0817 198.56 80.0409 198.985 79.7541V79.7594ZM176.607 65.3364L176.018 67.2906C176.069 67.4561 176.141 67.6148 176.23 67.7633C176.307 67.8972 176.411 68.0129 176.537 68.1024C176.663 68.1918 176.806 68.2528 176.958 68.2811C177.109 68.3094 177.265 68.3043 177.415 68.2663C177.564 68.2282 177.704 68.158 177.823 68.0606C178.057 67.8656 178.209 67.5912 178.253 67.2903C178.296 66.9893 178.226 66.683 178.057 66.4304C177.775 65.979 177.027 65.655 176.607 65.3364ZM179.305 62.6812C179.23 62.5469 179.128 62.4297 179.005 62.3368C178.882 62.2439 178.742 62.1774 178.592 62.1415C178.442 62.1056 178.287 62.101 178.135 62.1281C177.984 62.1552 177.84 62.2133 177.712 62.2989C177.626 62.3488 177.544 62.4057 177.467 62.4688C177.262 63.1769 177.039 63.915 176.798 64.6832C177.393 64.6036 178.391 64.6832 178.8 64.4018C178.953 64.3287 179.088 64.2243 179.198 64.0955C179.307 63.9667 179.388 63.8162 179.436 63.6539C179.484 63.4917 179.497 63.3212 179.474 63.1536C179.451 62.986 179.394 62.8251 179.305 62.6812Z" fill="black"/>
<path d="M191.827 58.4331C189.761 71.0718 183.951 80.3065 181.541 80.7048C175.057 81.7669 164.091 71.1727 160.83 68.6821C159.508 67.6785 170.293 58.6508 171.568 59.8881C174.573 62.7982 178.556 66.696 178.774 66.696C179.231 66.696 180.776 63.5523 186.426 56.1337C191.126 49.9365 192.671 53.2449 191.827 58.4331Z" fill="#D3766A"/>
<path d="M154.813 47.6847C153.921 49.0495 157.469 50.9718 157.469 50.9718C156.764 50.9774 156.084 51.2291 155.546 51.6834C154.633 52.5278 155.546 54.3386 155.546 54.3386C154.819 54.4939 154.155 54.8639 153.64 55.4007C152.849 56.2982 153.523 58.2418 153.523 58.2418C152.95 58.7677 152.575 59.4744 152.461 60.2438C152.041 63.6955 159.587 68.6342 162.02 69.59L171.913 60.658C171.913 60.658 168.243 52.4534 165.254 50.3346C163.607 49.1557 156.189 45.5977 154.813 47.6847Z" fill="#D3766A"/>
<path d="M157.527 50.9506C159.634 51.6783 161.644 52.661 163.512 53.8766C163.549 53.8766 163.512 53.9669 163.469 53.9403C161.605 52.7933 159.386 52.1188 157.479 51.0515C157.466 51.0451 157.456 51.0337 157.451 51.0198C157.446 51.0058 157.446 50.9905 157.453 50.9771C157.459 50.9637 157.47 50.9534 157.484 50.9484C157.498 50.9435 157.514 50.9442 157.527 50.9506Z" fill="#263238"/>
<path d="M155.706 54.2166C156.174 54.4092 156.615 54.6628 157.017 54.9707C157.463 55.2681 157.904 55.5761 158.345 55.8894C159.216 56.516 160.076 57.1639 160.915 57.833C160.952 57.8648 160.915 57.9286 160.878 57.8967C160.002 57.2754 159.125 56.6647 158.223 56.0806L156.869 55.2097C156.421 54.9687 156.003 54.6783 155.621 54.3441C155.609 54.3309 155.603 54.3144 155.602 54.2971C155.601 54.2798 155.605 54.2627 155.615 54.2483C155.625 54.2339 155.639 54.223 155.655 54.2173C155.671 54.2116 155.689 54.2113 155.706 54.2166Z" fill="#263238"/>
<path d="M153.576 58.2631C153.998 58.4435 154.386 58.695 154.723 59.0066C155.116 59.2986 155.509 59.5907 155.907 59.8775C156.699 60.4563 157.5 61.0351 158.297 61.5874C158.34 61.6139 158.297 61.6777 158.26 61.6511C157.431 61.1201 156.598 60.5519 155.775 59.989L154.569 59.1552C154.18 58.9331 153.833 58.6436 153.544 58.3003C153.544 58.3003 153.555 58.2578 153.576 58.2631Z" fill="#263238"/>
<path d="M152.838 59.1127C152.471 59.645 152.307 60.2913 152.376 60.9341C152.459 61.5804 152.705 62.1947 153.093 62.7184C153.823 63.7626 154.674 64.7179 155.626 65.5648C156.564 66.4229 157.569 67.2043 158.632 67.9013C159.693 68.5973 160.814 69.1962 161.982 69.6909H161.956C162.699 70.3016 167.585 74.5234 168.366 74.842C167.675 74.1729 162.816 70.1636 162.11 69.5316C160.987 68.9795 159.906 68.3459 158.876 67.6358C157.841 66.9307 156.853 66.1591 155.918 65.3258C154.979 64.5048 154.12 63.5961 153.353 62.6122C152.964 62.1351 152.698 61.5699 152.578 60.966C152.444 60.3368 152.536 59.6806 152.838 59.1127Z" fill="#263238"/>
<path d="M190.17 69.0537L180.415 63.584C180.415 63.584 184.382 56.8505 187.849 53.6377C191.317 50.4249 192.761 52.8571 192.326 57.424C191.89 61.9909 190.17 69.0537 190.17 69.0537Z" fill="#FFC727"/>
<path opacity="0.1" d="M192.22 58.21C192.183 58.5605 192.135 58.9216 192.087 59.2721C192.003 59.2109 191.933 59.1309 191.885 59.0384C191.848 58.9628 191.827 58.8801 191.824 58.7959C191.821 58.7116 191.836 58.6277 191.868 58.5496C191.899 58.4714 191.947 58.4008 192.007 58.3423C192.068 58.2838 192.14 58.2387 192.22 58.21ZM183.691 63.0478C184.026 63 184.488 62.4849 184.663 62.5698C184.838 62.6548 184.435 63.2549 184.424 63.6319C184.416 63.7178 184.427 63.8044 184.456 63.8857C184.485 63.9671 184.53 64.0413 184.59 64.1032C184.65 64.1652 184.723 64.2136 184.803 64.245C184.884 64.2763 184.97 64.29 185.056 64.2851C185.224 64.2696 185.381 64.1929 185.496 64.0696C185.612 63.9463 185.678 63.7849 185.683 63.616C185.683 63.1327 185.152 62.4743 185.396 62.3468C185.64 62.2194 186.283 62.8778 186.67 62.9203C186.763 62.9354 186.857 62.9308 186.947 62.907C187.037 62.8831 187.122 62.8405 187.194 62.7818C187.267 62.7232 187.326 62.6499 187.369 62.5667C187.411 62.4835 187.436 62.3923 187.44 62.299C187.448 62.2148 187.439 62.1299 187.413 62.0494C187.387 61.969 187.345 61.8946 187.289 61.831C187.234 61.7674 187.166 61.7158 187.089 61.6794C187.013 61.643 186.93 61.6225 186.846 61.6193C186.442 61.5874 185.879 61.8689 185.826 61.6724C185.773 61.4759 186.309 61.1413 186.463 60.7218C186.508 60.6351 186.532 60.5389 186.532 60.4411C186.533 60.3434 186.509 60.2471 186.465 60.1602C186.42 60.0733 186.355 59.9984 186.275 59.9418C186.195 59.8852 186.103 59.8486 186.007 59.835C185.842 59.7924 185.667 59.8157 185.519 59.9C185.372 59.9843 185.262 60.1229 185.215 60.2864C185.072 60.7006 185.3 61.3485 185.019 61.3485C184.737 61.3485 184.844 60.5838 184.488 60.2386C184.428 60.1738 184.354 60.1234 184.272 60.0911C184.191 60.0588 184.102 60.0455 184.014 60.0522C183.927 60.0588 183.841 60.0852 183.765 60.1295C183.689 60.1737 183.624 60.2346 183.574 60.3076C183.507 60.4125 183.474 60.5353 183.479 60.6596C183.484 60.7839 183.526 60.9038 183.601 61.0033C183.851 61.3962 184.461 61.6034 184.334 61.9114C184.254 62.1078 183.755 61.9114 183.415 61.9698C183.293 61.984 183.18 62.04 183.095 62.128C183.01 62.2161 182.958 62.3309 182.948 62.453C182.947 62.5447 182.967 62.6354 183.006 62.7182C183.046 62.801 183.103 62.8738 183.175 62.9311C183.247 62.9884 183.33 63.0286 183.42 63.0488C183.509 63.0691 183.602 63.0687 183.691 63.0478ZM189.49 67.2058C189.375 67.4065 189.338 67.6425 189.386 67.8689C189.434 68.0952 189.564 68.2959 189.75 68.4325C189.911 68.5429 190.091 68.6205 190.281 68.6608C190.361 68.2997 190.499 67.705 190.664 66.9615C190.573 66.894 190.469 66.8465 190.358 66.8221C190.248 66.7977 190.133 66.797 190.022 66.8201C189.911 66.8432 189.807 66.8895 189.715 66.956C189.623 67.0224 189.547 67.1076 189.49 67.2058Z" fill="black"/>
<path d="M182.061 61.6989C184.949 63.0088 187.746 64.5133 190.43 66.2021C190.43 66.2021 190.43 66.2818 190.393 66.2712C188.04 65.2091 183.521 62.6495 182.013 61.7945C181.987 61.7786 182.034 61.683 182.061 61.6989Z" fill="#263238"/>
<path d="M189.225 68.5227C189.554 68.6661 189.883 68.8307 190.207 68.9794L190.064 69.0538C190.292 67.5456 190.568 66.0534 190.897 64.5665C191.057 63.823 191.221 63.0849 191.428 62.3467C191.636 61.6086 191.811 60.8758 192.039 60.1429C191.949 60.897 191.837 61.6511 191.705 62.3999C191.572 63.1486 191.439 63.8974 191.29 64.6461C190.989 66.1401 190.635 67.6217 190.228 69.0909L190.196 69.2024L190.106 69.144C189.825 68.9263 189.533 68.7351 189.225 68.5227Z" fill="#263238"/>
<path d="M191.498 62.9627C191.605 62.6659 191.733 62.3767 191.88 62.0972C192.029 61.8196 192.196 61.5517 192.379 61.2953C192.276 61.5939 192.148 61.8834 191.997 62.1609C191.849 62.4396 191.683 62.7075 191.498 62.9627Z" fill="#263238"/>
<path d="M182.911 55.9956C184.684 56.1018 187.499 52.7084 188.29 50.3984C188.343 50.2391 187.855 48.7522 187.35 46.9148C187.047 45.7996 186.739 44.5517 186.538 43.394L179.57 46.421C180.237 47.7977 180.731 49.2513 181.041 50.7489C181.067 50.9105 181.079 51.0739 181.079 51.2375C181.076 51.264 181.076 51.2906 181.079 51.3171C181.089 52.2464 181.195 55.8894 182.911 55.9956Z" fill="#D3766A"/>
<path d="M181.079 51.2376V51.3119C181.332 51.3082 181.585 51.2797 181.833 51.227C186.028 50.4038 186.129 45.0829 186.081 43.6013L184.344 44.3553L179.565 46.4211C180.232 47.7994 180.726 49.2548 181.036 50.7543C181.066 50.9137 181.08 51.0755 181.079 51.2376Z" fill="#263238"/>
<path d="M175.465 33.0442C175.465 33.0442 173.129 34.5736 173.15 37.2394C173.171 39.9052 174.265 42.4967 174.515 42.5869C174.765 42.6772 175.465 33.0442 175.465 33.0442Z" fill="#263238"/>
<path d="M186.15 35.2319C187.244 37.8022 186.681 45.6297 184.971 47.5414C182.502 50.324 178.041 51.0463 175.577 47.9822C173.187 45.0084 174.111 34.823 176.055 33.0388C178.912 30.4101 184.525 31.435 186.15 35.2319Z" fill="#D3766A"/>
<path opacity="0.2" d="M186.697 40.1547C186.601 43.1392 185.991 46.3997 184.971 47.5415C182.502 50.3241 178.041 51.041 175.577 47.9822C174.695 46.883 174.265 44.796 174.17 42.5444C174.202 42.6506 174.669 44.2703 175.63 44.3552C175.908 44.3817 176.187 44.3187 176.427 44.1754C176.667 44.0321 176.855 43.8161 176.963 43.5587L177.59 43.3728C178.551 43.933 179.685 44.1219 180.776 43.9039C181.549 43.7901 182.288 43.5093 182.942 43.081C183.596 42.6528 184.149 42.0873 184.562 41.4239C185.093 40.4627 185.04 40.1069 185.04 40.1069L186.697 40.1547Z" fill="#263238"/>
<path d="M179.48 40.7387C179.48 40.7387 179.523 40.7706 179.523 40.7918C179.47 41.3228 179.523 41.9282 179.963 42.1353C179.963 42.1353 179.963 42.1672 179.963 42.1619C179.379 42.0451 179.347 41.2326 179.48 40.7387Z" fill="#263238"/>
<path d="M179.974 40.2239C180.829 40.2239 180.781 41.9232 179.974 41.9285C179.167 41.9338 179.278 40.2292 179.974 40.2239Z" fill="#263238"/>
<path d="M176.448 40.6487C176.448 40.6487 176.405 40.6487 176.405 40.6965C176.405 41.2275 176.32 41.8329 175.837 41.9922V42.0241C176.427 41.971 176.533 41.1532 176.448 40.6487Z" fill="#263238"/>
<path d="M175.991 40.0857C175.142 39.9954 175.03 41.6788 175.811 41.7797C176.591 41.8806 176.703 40.1601 175.991 40.0857Z" fill="#263238"/>
<path d="M180.686 39.4591C180.463 39.3885 180.245 39.3051 180.032 39.2095C179.791 39.1517 179.575 39.0176 179.416 38.8272C179.378 38.7572 179.364 38.6765 179.377 38.5977C179.389 38.5189 179.427 38.4465 179.485 38.3917C179.616 38.3012 179.769 38.2472 179.927 38.235C180.086 38.2229 180.245 38.2532 180.388 38.3227C180.702 38.4208 180.967 38.6331 181.132 38.9175C181.166 38.9838 181.179 39.0587 181.171 39.1329C181.163 39.207 181.134 39.2772 181.086 39.3347C181.039 39.3923 180.976 39.4348 180.905 39.4569C180.833 39.479 180.757 39.4797 180.686 39.4591Z" fill="#263238"/>
<path d="M175.354 39.2042C175.586 39.1686 175.814 39.1172 176.039 39.0502C176.288 39.0283 176.523 38.9257 176.708 38.7581C176.757 38.6949 176.783 38.6174 176.783 38.5377C176.783 38.458 176.757 38.3805 176.708 38.3173C176.591 38.2091 176.447 38.1342 176.291 38.1006C176.135 38.067 175.973 38.0758 175.821 38.1262C175.498 38.177 175.206 38.3477 175.004 38.6041C174.961 38.664 174.938 38.7347 174.935 38.8078C174.931 38.8809 174.949 38.9533 174.986 39.0165C175.023 39.0797 175.078 39.1309 175.143 39.1642C175.208 39.1975 175.281 39.2113 175.354 39.2042Z" fill="#263238"/>
<path d="M179.618 45.6881C179.491 45.805 179.358 45.9749 179.167 45.9855C178.969 45.9757 178.776 45.9251 178.599 45.8368C178.599 45.8368 178.567 45.8368 178.599 45.8634C178.672 45.9686 178.772 46.0522 178.889 46.1055C179.006 46.1587 179.135 46.1796 179.262 46.1661C179.501 46.1342 179.623 45.9271 179.693 45.7094C179.677 45.6881 179.639 45.651 179.618 45.6881Z" fill="#263238"/>
<path d="M179.108 44.0949C178.968 44.2992 178.787 44.4724 178.577 44.604C178.367 44.7355 178.132 44.8225 177.887 44.8596C177.672 44.8914 177.454 44.8914 177.239 44.8596C177.197 44.8622 177.154 44.8622 177.112 44.8596H177C176.972 44.853 176.946 44.8377 176.927 44.8157C176.908 44.7938 176.897 44.7664 176.894 44.7375C176.894 44.7375 176.894 44.7056 176.894 44.6844V44.6366C176.894 44.233 176.952 43.617 176.952 43.617C176.804 43.686 176.034 44.0046 176.05 43.7922C176.152 41.959 176.438 40.1408 176.905 38.365C176.908 38.3544 176.915 38.3451 176.924 38.3386C176.933 38.332 176.944 38.3285 176.955 38.3285C176.966 38.3285 176.977 38.332 176.986 38.3386C176.995 38.3451 177.002 38.3544 177.005 38.365C176.921 40.059 176.538 41.7265 176.427 43.4311C176.701 43.3137 176.991 43.2351 177.287 43.1975C177.345 43.1975 177.154 44.387 177.17 44.5728C177.503 44.6141 177.841 44.5883 178.164 44.4971C178.486 44.4059 178.788 44.2511 179.05 44.0418C179.103 43.994 179.14 44.0312 179.108 44.0949Z" fill="#263238"/>
<path d="M177.467 44.7747C177.697 45.0527 177.995 45.2652 178.333 45.3907C178.518 45.4519 178.717 45.4519 178.901 45.3907C179.31 45.2633 179.31 44.8862 179.22 44.5623C179.169 44.3924 179.099 44.2285 179.013 44.0737C178.587 44.4682 178.045 44.7141 177.467 44.7747Z" fill="#263238"/>
<path d="M178.333 45.3908C178.518 45.452 178.717 45.452 178.901 45.3908C179.31 45.2633 179.31 44.8863 179.22 44.5624C179 44.5793 178.792 44.6706 178.631 44.8211C178.47 44.9717 178.365 45.1726 178.333 45.3908Z" fill="#FF98B9"/>
<path d="M186.235 41.7691C185.353 42.0133 184.424 39.3582 184.164 38.3386C183.941 37.4411 183.728 34.6213 183.691 34.4195C183.654 34.2177 179.815 36.8092 177.632 36.1082C175.45 35.4072 174.032 33.384 174.026 32.46C174.021 31.536 176.825 29.2737 179.188 29.2206C181.551 29.1675 184.679 32.2635 184.679 32.2635C184.314 31.8075 183.984 31.3247 183.691 30.8191C184.103 30.9232 184.483 31.1275 184.797 31.4138C185.111 31.7 185.35 32.0594 185.491 32.46C185.491 32.46 185.231 31.0846 185.343 31.0633C185.454 31.0421 186.617 32.2422 186.325 33.1238C186.325 33.1238 187.663 34.3505 187.754 35.6621C187.844 36.9738 187.27 41.4823 186.235 41.7691Z" fill="#263238"/>
<path d="M176.081 35.5984C176.725 35.9654 177.419 36.2356 178.142 36.4003C178.95 36.4907 179.769 36.3831 180.526 36.087C181.294 35.8132 182.012 35.4149 182.65 34.9081C183.213 34.4726 183.712 33.9416 184.318 33.5539C184.467 33.453 184.631 33.6708 184.536 33.8035C183.518 35.1714 182.086 36.1736 180.452 36.6605C179.696 36.8847 178.895 36.9086 178.127 36.7298C177.359 36.5511 176.65 36.1759 176.071 35.6409C176.071 35.6409 176.071 35.5984 176.081 35.5984Z" fill="#263238"/>
<path d="M185.183 41.6629C185.183 41.6629 186.708 39.0077 187.886 39.5387C189.065 40.0698 188.083 43.787 186.824 44.3924C186.665 44.4809 186.489 44.5363 186.308 44.5556C186.127 44.5748 185.944 44.5574 185.769 44.5044C185.595 44.4514 185.433 44.3639 185.293 44.247C185.153 44.1302 185.038 43.9864 184.955 43.8242L185.183 41.6629Z" fill="#D3766A"/>
<path d="M187.578 40.606C187.578 40.606 187.605 40.606 187.578 40.6379C187.166 40.8853 186.811 41.2171 186.537 41.6116C186.262 42.0061 186.074 42.4543 185.985 42.9267C186.031 42.8286 186.097 42.7415 186.179 42.6716C186.261 42.6016 186.358 42.5504 186.462 42.5216C186.566 42.4928 186.675 42.4871 186.782 42.5047C186.889 42.5224 186.99 42.5631 187.079 42.624C187.106 42.624 187.079 42.6771 187.079 42.6771C186.912 42.6394 186.737 42.6543 186.578 42.7199C186.419 42.7855 186.285 42.8985 186.192 43.0435C186.04 43.2873 185.915 43.5473 185.821 43.8188C185.784 43.9091 185.63 43.8772 185.656 43.7763C185.545 42.5762 186.315 40.8344 187.578 40.606Z" fill="#263238"/>
<defs>
<clipPath id="clip0_25_312">
<rect width="13" height="12" fill="white" transform="translate(95 59)"/>
</clipPath>
</defs>
</svg>